<svg width="183" height="57" viewBox="0 0 183 57" fill="none" xmlns="http://www.w3.org/2000/svg">
<path d="M1.8 20V3.2H12.288V5.528H4.248V9.224H8.088C9.784 9.224 11.112 9.72 12.072 10.712C13.048 11.704 13.536 13.008 13.536 14.624C13.536 16.24 13.048 17.544 12.072 18.536C11.112 19.512 9.784 20 8.088 20H1.8ZM4.248 17.672H7.872C8.88 17.672 9.656 17.408 10.2 16.88C10.76 16.352 11.04 15.6 11.04 14.624C11.04 13.664 10.76 12.912 10.2 12.368C9.656 11.824 8.88 11.552 7.872 11.552H4.248V17.672ZM15.4416 20V18.128L20.0496 13.16C21.0576 12.088 21.7696 11.192 22.1856 10.472C22.6016 9.736 22.8096 8.952 22.8096 8.12C22.8096 7.24 22.5456 6.544 22.0176 6.032C21.5056 5.504 20.8016 5.24 19.9056 5.24C18.4816 5.24 17.1216 5.912 15.8256 7.256V4.592C17.0096 3.456 18.4496 2.888 20.1456 2.888C21.6016 2.888 22.8176 3.344 23.7936 4.256C24.7696 5.152 25.2576 6.336 25.2576 7.808C25.2576 8.944 25.0176 9.952 24.5376 10.832C24.0736 11.712 23.2496 12.832 22.0656 14.192L18.9456 17.72H25.7616V20H15.4416ZM34.5986 20V15.584H26.9666V13.64L34.5746 3.2H36.9986V13.4H39.2786V15.584H36.9986V20H34.5986ZM29.7506 13.4H34.5986V6.464L29.7506 13.4ZM40.1318 23.624V17.672H41.5478C42.3158 16.328 42.8758 14.752 43.2278 12.944C43.5798 11.12 43.7558 8.64 43.7558 5.504V3.2H53.6438V17.672H55.7558V23.624H53.4518V20H42.4358V23.624H40.1318ZM44.2118 17.672H51.1958V5.528H46.1318C46.1318 8.376 45.9878 10.768 45.6998 12.704C45.4118 14.624 44.9158 16.28 44.2118 17.672ZM62.4381 20.312C60.4701 20.312 58.7341 19.88 57.2301 19.016V16.496C58.7661 17.456 60.3581 17.936 62.0061 17.936C63.2541 17.936 64.2381 17.664 64.9581 17.12C65.6781 16.56 66.0381 15.824 66.0381 14.912C66.0381 14.096 65.7101 13.44 65.0541 12.944C64.4141 12.448 63.5661 12.2 62.5101 12.2H60.6861V9.872H62.8221C63.7181 9.872 64.3981 9.672 64.8621 9.272C65.3261 8.872 65.5581 8.304 65.5581 7.568C65.5581 6.816 65.2701 6.248 64.6941 5.864C64.1181 5.464 63.3421 5.264 62.3661 5.264C60.8941 5.264 59.3901 5.632 57.8541 6.368V4.04C59.3581 3.272 60.9341 2.888 62.5821 2.888C64.2141 2.888 65.5181 3.296 66.4941 4.112C67.4861 4.928 67.9821 6.032 67.9821 7.424C67.9821 8.352 67.7501 9.104 67.2861 9.68C66.8221 10.256 66.2941 10.672 65.7021 10.928C66.4701 11.184 67.1341 11.672 67.6941 12.392C68.2701 13.096 68.5581 14 68.5581 15.104C68.5581 16.608 68.0061 17.856 66.9021 18.848C65.7981 19.824 64.3101 20.312 62.4381 20.312ZM72.5603 5.408C73.6803 3.728 75.2003 2.888 77.1203 2.888C79.0403 2.888 80.5603 3.728 81.6803 5.408C82.8003 7.072 83.3603 9.136 83.3603 11.6C83.3603 14.064 82.8003 16.136 81.6803 17.816C80.5603 19.48 79.0403 20.312 77.1203 20.312C75.2003 20.312 73.6803 19.48 72.5603 17.816C71.4403 16.136 70.8803 14.064 70.8803 11.6C70.8803 9.136 71.4403 7.072 72.5603 5.408ZM79.8803 16.136C80.5683 14.936 80.9123 13.424 80.9123 11.6C80.9123 9.776 80.5683 8.264 79.8803 7.064C79.1923 5.864 78.2723 5.264 77.1203 5.264C75.9683 5.264 75.0483 5.864 74.3603 7.064C73.6723 8.264 73.3283 9.776 73.3283 11.6C73.3283 13.424 73.6723 14.936 74.3603 16.136C75.0483 17.336 75.9683 17.936 77.1203 17.936C78.2723 17.936 79.1923 17.336 79.8803 16.136ZM90.9945 2.888C92.8345 2.888 94.2585 3.584 95.2665 4.976C96.2905 6.352 96.8025 8.28 96.8025 10.76C96.8025 13.464 96.2105 15.736 95.0265 17.576C93.8425 19.4 92.2105 20.312 90.1305 20.312C88.8185 20.312 87.7305 19.976 86.8665 19.304V16.976C87.7945 17.648 88.7945 17.984 89.8665 17.984C90.8105 17.984 91.6185 17.688 92.2905 17.096C92.9625 16.504 93.4425 15.792 93.7305 14.96C94.0345 14.128 94.2105 13.232 94.2585 12.272C93.3625 13.456 92.1225 14.048 90.5385 14.048C89.2105 14.048 88.0825 13.552 87.1545 12.56C86.2265 11.568 85.7625 10.28 85.7625 8.696C85.7625 6.984 86.2585 5.592 87.2505 4.52C88.2585 3.432 89.5065 2.888 90.9945 2.888ZM91.1385 5.144C90.2745 5.144 89.5625 5.48 89.0025 6.152C88.4585 6.808 88.1865 7.64 88.1865 8.648C88.1865 9.656 88.4665 10.464 89.0265 11.072C89.5865 11.664 90.2985 11.96 91.1625 11.96C91.8825 11.96 92.5305 11.752 93.1065 11.336C93.6985 10.904 94.1145 10.352 94.3545 9.68C94.3225 8.384 94.0185 7.304 93.4425 6.44C92.8825 5.576 92.1145 5.144 91.1385 5.144Z" fill="white"/>
<path d="M4.248 35.2V42.112L10.176 35.2H13.296L6.528 42.88L14.4 52H11.064L4.248 43.888V52H1.8V35.2H4.248ZM25.0584 46.192V46.84H17.1864C17.3464 47.912 17.7704 48.728 18.4584 49.288C19.1624 49.848 20.0664 50.128 21.1704 50.128C22.2744 50.128 23.3384 49.824 24.3624 49.216V51.304C23.4664 51.976 22.2024 52.312 20.5704 52.312C18.8744 52.312 17.4824 51.744 16.3944 50.608C15.3064 49.472 14.7624 47.976 14.7624 46.12C14.7624 44.28 15.2504 42.784 16.2264 41.632C17.2024 40.48 18.4984 39.904 20.1144 39.904C21.7624 39.904 22.9944 40.512 23.8104 41.728C24.6424 42.928 25.0584 44.416 25.0584 46.192ZM17.2104 44.944H22.6344C22.6344 44.192 22.4104 43.512 21.9624 42.904C21.5304 42.296 20.8824 41.992 20.0184 41.992C19.2504 41.992 18.6024 42.28 18.0744 42.856C17.5624 43.416 17.2744 44.112 17.2104 44.944ZM27.6002 52V40.216H30.0002V48.088L35.4482 40.216H37.7042V52H35.3042V44.104L29.8562 52H27.6002ZM32.6402 38.608C31.5522 38.608 30.6642 38.256 29.9762 37.552C29.3042 36.848 28.9602 35.896 28.9442 34.696H30.9602C30.9602 35.288 31.1042 35.768 31.3922 36.136C31.6962 36.504 32.1042 36.688 32.6162 36.688C33.1122 36.688 33.5122 36.504 33.8162 36.136C34.1202 35.752 34.2722 35.272 34.2722 34.696H36.3122C36.3122 35.864 35.9602 36.808 35.2562 37.528C34.5522 38.248 33.6802 38.608 32.6402 38.608ZM47.5127 45.64C48.8247 46.136 49.4807 47.112 49.4807 48.568C49.4807 49.672 49.0167 50.576 48.0887 51.28C47.1607 51.968 45.9447 52.312 44.4407 52.312C42.8567 52.312 41.5607 52.048 40.5527 51.52V49.264C41.6887 49.872 42.8567 50.176 44.0567 50.176C44.9367 50.176 45.6327 50.016 46.1447 49.696C46.6727 49.376 46.9367 48.936 46.9367 48.376C46.9367 47.352 46.1607 46.84 44.6087 46.84H42.8087V44.848H44.6087C45.2807 44.848 45.7767 44.72 46.0967 44.464C46.4327 44.208 46.6007 43.88 46.6007 43.48C46.6007 43.032 46.3607 42.68 45.8807 42.424C45.4167 42.168 44.8167 42.04 44.0807 42.04C42.8327 42.04 41.7447 42.304 40.8167 42.832V40.648C41.8407 40.152 43.1287 39.904 44.6807 39.904C45.9287 39.904 46.9767 40.224 47.8247 40.864C48.6727 41.504 49.0967 42.288 49.0967 43.216C49.0967 44.4 48.5687 45.208 47.5127 45.64ZM61.6444 46.192V46.84H53.7724C53.9324 47.912 54.3564 48.728 55.0444 49.288C55.7484 49.848 56.6524 50.128 57.7564 50.128C58.8604 50.128 59.9244 49.824 60.9484 49.216V51.304C60.0524 51.976 58.7884 52.312 57.1564 52.312C55.4604 52.312 54.0684 51.744 52.9804 50.608C51.8924 49.472 51.3484 47.976 51.3484 46.12C51.3484 44.28 51.8364 42.784 52.8124 41.632C53.7884 40.48 55.0844 39.904 56.7004 39.904C58.3484 39.904 59.5804 40.512 60.3964 41.728C61.2284 42.928 61.6444 44.416 61.6444 46.192ZM53.7964 44.944H59.2204C59.2204 44.192 58.9964 43.512 58.5484 42.904C58.1164 42.296 57.4684 41.992 56.6044 41.992C55.8364 41.992 55.1884 42.28 54.6604 42.856C54.1484 43.416 53.8604 44.112 53.7964 44.944ZM70.1141 39.904C71.5861 39.904 72.8021 40.472 73.7621 41.608C74.7381 42.728 75.2261 44.232 75.2261 46.12C75.2261 48.008 74.7381 49.512 73.7621 50.632C72.8021 51.752 71.5861 52.312 70.1141 52.312C68.5941 52.312 67.4101 51.768 66.5621 50.68V56.8H64.1621V40.216H66.5621V41.536C67.4261 40.448 68.6101 39.904 70.1141 39.904ZM69.5381 50.128C70.4981 50.128 71.2821 49.76 71.8901 49.024C72.4981 48.272 72.8021 47.304 72.8021 46.12C72.8021 44.952 72.4981 43.992 71.8901 43.24C71.2821 42.472 70.4981 42.088 69.5381 42.088C68.8821 42.088 68.2821 42.264 67.7381 42.616C67.2101 42.952 66.8181 43.376 66.5621 43.888V48.352C66.8341 48.864 67.2341 49.288 67.7621 49.624C68.2901 49.96 68.8821 50.128 69.5381 50.128ZM83.3859 52V35.2H93.9699V37.528H85.8339V41.872H92.4579V44.2H85.8339V49.672H94.2339V52H83.3859ZM96.7408 52V40.216H102.453C103.509 40.216 104.317 40.496 104.877 41.056C105.437 41.616 105.717 42.336 105.717 43.216C105.717 43.808 105.589 44.328 105.333 44.776C105.093 45.224 104.781 45.552 104.397 45.76C105.757 46.224 106.437 47.224 106.437 48.76C106.437 49.752 106.117 50.544 105.477 51.136C104.837 51.712 103.933 52 102.765 52H96.7408ZM99.1408 50.008H102.333C102.845 50.008 103.245 49.872 103.533 49.6C103.821 49.328 103.965 48.952 103.965 48.472C103.965 47.976 103.821 47.6 103.533 47.344C103.245 47.072 102.845 46.936 102.333 46.936H99.1408V50.008ZM99.1408 44.968H101.877C102.357 44.968 102.725 44.848 102.981 44.608C103.237 44.368 103.365 44.032 103.365 43.6C103.365 42.672 102.869 42.208 101.877 42.208H99.1408V44.968ZM112.934 50.176C113.894 50.176 114.782 49.8 115.598 49.048V47.248C114.718 46.704 113.886 46.432 113.102 46.432C112.366 46.432 111.758 46.6 111.278 46.936C110.798 47.256 110.558 47.696 110.558 48.256C110.558 48.864 110.79 49.336 111.254 49.672C111.718 50.008 112.278 50.176 112.934 50.176ZM112.262 52.312C111.126 52.312 110.158 51.944 109.358 51.208C108.558 50.456 108.158 49.496 108.158 48.328C108.158 47.144 108.598 46.208 109.478 45.52C110.358 44.832 111.374 44.488 112.526 44.488C113.63 44.488 114.654 44.776 115.598 45.352V44.56C115.598 42.896 114.622 42.064 112.67 42.064C111.406 42.064 110.326 42.384 109.43 43.024V40.816C110.422 40.208 111.686 39.904 113.222 39.904C114.662 39.904 115.814 40.28 116.678 41.032C117.542 41.768 117.974 42.856 117.974 44.296V48.904C117.974 49.672 118.254 50.056 118.814 50.056C119.054 50.056 119.262 50 119.438 49.888V51.784C119.086 52.04 118.622 52.168 118.046 52.168C116.862 52.168 116.126 51.696 115.838 50.752C114.878 51.792 113.686 52.312 112.262 52.312Z" fill="white"/>
</svg>
