<svg width="177" height="175" viewBox="0 0 177 175" fill="none" xmlns="http://www.w3.org/2000/svg">
<g clip-path="url(#clip0_553_23928)">
<path d="M89 174C137.049 174 176 135.273 176 87.5C176 39.7274 137.049 1 89 1C40.9512 1 2 39.7274 2 87.5C2 135.273 40.9512 174 89 174Z" fill="#003CFF" stroke="#003CFF"/>
<path d="M90 161C130.593 161 163 128.593 163 88C163 47.4071 130.593 14 90 14C49.4071 14 16 47.4071 16 88C16 128.593 49.4071 161 90 161Z" fill="white" stroke="#003CFF"/>
<path d="M90.4539 85.4207C77.2489 77.6156 50.3384 61.6707 50.0048 62.0052C49.6712 62.3397 66.8238 74.9674 75.4418 81.2394M90.4539 85.4207C109.636 79.7062 148 68.3608 148 68.6953C148 69.0298 112.179 82.2362 94.2682 88.7976L141.745 108L93.7899 89.9679M90.4539 85.4207C92.4555 86.0899 92.1219 88.2083 91.7049 89.1839M90.4539 85.4207C89.2786 85.0841 88.4765 85.3688 87.9519 85.8591M75.4418 81.2394L67.9359 78.3124L67.1019 80.4031L79.1949 84.6977M75.4418 81.2394L87.9519 85.8591M87.1179 87.5114C87.1179 89.1839 87.7851 89.6857 88.7859 90.0202M87.1179 87.5114L79.1949 84.6977M87.1179 87.5114C87.187 87.0268 87.4343 86.3429 87.9519 85.8591M88.7859 90.0202C90.0369 90.4384 91.2879 90.0202 91.7049 89.1839M88.7859 90.0202H81.6969L84.6159 88.3477L79.1949 84.6977M88.7859 90.0202L95.8749 92.1109L93.7899 89.9679M91.7049 89.1839L93.7899 89.9679" stroke="#003CFF"/>
<path d="M30 123C30.5523 123 31 122.552 31 122C31 121.448 30.5523 121 30 121C29.4477 121 29 121.448 29 122C29 122.552 29.4477 123 30 123Z" stroke="#003CFF"/>
<path d="M21 89C21.5523 89 22 88.5523 22 88C22 87.4477 21.5523 87 21 87C20.4477 87 20 87.4477 20 88C20 88.5523 20.4477 89 21 89Z" stroke="#003CFF"/>
<path d="M30 54C30.5523 54 31 53.5523 31 53C31 52.4477 30.5523 52 30 52C29.4477 52 29 52.4477 29 53C29 53.5523 29.4477 54 30 54Z" stroke="#003CFF"/>
<path d="M55 29C55.5523 29 56 28.5523 56 28C56 27.4477 55.5523 27 55 27C54.4477 27 54 27.4477 54 28C54 28.5523 54.4477 29 55 29Z" stroke="#003CFF"/>
<path d="M89 21C89.5523 21 90 20.5523 90 20C90 19.4477 89.5523 19 89 19C88.4477 19 88 19.4477 88 20C88 20.5523 88.4477 21 89 21Z" stroke="#003CFF"/>
<path d="M123 29C123.552 29 124 28.5523 124 28C124 27.4477 123.552 27 123 27C122.448 27 122 27.4477 122 28C122 28.5523 122.448 29 123 29Z" stroke="#003CFF"/>
<path d="M148 54C148.552 54 149 53.5523 149 53C149 52.4477 148.552 52 148 52C147.448 52 147 52.4477 147 53C147 53.5523 147.448 54 148 54Z" stroke="#003CFF"/>
<path d="M157 88C157.552 88 158 87.5523 158 87C158 86.4477 157.552 86 157 86C156.448 86 156 86.4477 156 87C156 87.5523 156.448 88 157 88Z" stroke="#003CFF"/>
<path d="M148 123C148.552 123 149 122.552 149 122C149 121.448 148.552 121 148 121C147.448 121 147 121.448 147 122C147 122.552 147.448 123 148 123Z" stroke="#003CFF"/>
<path d="M123 148C123.552 148 124 147.552 124 147C124 146.448 123.552 146 123 146C122.448 146 122 146.448 122 147C122 147.552 122.448 148 123 148Z" stroke="#003CFF"/>
<path d="M55 148C55.5523 148 56 147.552 56 147C56 146.448 55.5523 146 55 146C54.4477 146 54 146.448 54 147C54 147.552 54.4477 148 55 148Z" stroke="#003CFF"/>
<path d="M89 157C89.5523 157 90 156.552 90 156C90 155.448 89.5523 155 89 155C88.4477 155 88 155.448 88 156C88 156.552 88.4477 157 89 157Z" stroke="#003CFF"/>
</g>
<defs>
<clipPath id="clip0_553_23928">
<rect width="177" height="175" fill="white"/>
</clipPath>
</defs>
</svg>
