<svg width="1280" height="666" viewBox="0 0 1280 666" fill="none" xmlns="http://www.w3.org/2000/svg">
<rect width="1280" height="666" fill="#003CFF"/>
<path d="M186 119H124.896V176.213H186M186 119V176.213M186 119H487M186 176.213H487M487 119V176.213M487 119H1012M487 176.213H1012M1012 119V176.213M1012 119H1101M1012 176.213H1101M1101 119H1225V176.213H1101M1101 119V176.213M124.896 190.045V239.63V291.503V347.191V399.064V454.752V514.253V566.127V618H185.675H486.532H1011.51H1100.4H1225V566.127V514.253V454.752V399.064V347.191V291.503V239.63V190.045H1100.4H1011.51H486.532H185.675H124.896ZM111.221 190.045H55V404.023V618H111.221V404.023V190.045Z" stroke="white" stroke-width="2"/>
<line x1="487" y1="618" x2="487" y2="190" stroke="white" stroke-width="2"/>
<line x1="186" y1="618" x2="186" y2="190" stroke="white" stroke-width="2"/>
<line x1="1012" y1="618" x2="1012" y2="190" stroke="white" stroke-width="2"/>
<line x1="1101" y1="618" x2="1101" y2="190" stroke="white" stroke-width="2"/>
<line x1="124" y1="244" x2="1225" y2="244" stroke="white" stroke-width="2"/>
<line x1="124" y1="298" x2="1225" y2="298" stroke="white" stroke-width="2"/>
<line x1="124" y1="352" x2="1225" y2="352" stroke="white" stroke-width="2"/>
<line x1="124" y1="406" x2="1225" y2="406" stroke="white" stroke-width="2"/>
<line x1="124" y1="460" x2="1225" y2="460" stroke="white" stroke-width="2"/>
<line x1="124" y1="514" x2="1225" y2="514" stroke="white" stroke-width="2"/>
<line x1="124" y1="568" x2="1225" y2="568" stroke="white" stroke-width="2"/>
<path d="M1115.69 480.775C1118.37 473.073 1123.8 466.445 1127.31 459.116C1127.83 458.028 1127.13 457.784 1126.09 458.399C1122.21 460.678 1120.11 465.577 1119.1 469.73C1118.53 472.061 1117.67 475.743 1118.77 478.085C1120.94 482.701 1120.32 486.492 1119.35 491.64C1118.97 493.652 1118.38 495.621 1117.98 497.628C1117.82 498.444 1116.86 499.891 1117.66 500.103C1118.53 500.332 1118.86 498.748 1119.35 497.987C1120.67 495.897 1121.88 493.732 1123.08 491.568C1128.17 482.381 1133.8 472.288 1133.12 461.411C1132.81 456.486 1132.47 458.401 1136.77 455.673C1139.29 454.078 1141.86 452.103 1143.52 449.577C1145.52 446.523 1144.09 454.977 1144.09 455.924C1144.09 465.941 1144.13 475.958 1144.05 485.974C1143.99 494.177 1144.84 503.683 1142.44 511.685C1142.32 512.08 1140.39 515.899 1140.04 513.191C1139.79 511.3 1140.31 509.031 1140.68 507.31C1142.47 499.163 1145.16 491.173 1148.03 483.356C1151.87 472.943 1156.39 462.715 1161.09 452.661C1166 442.125 1161.12 457.569 1160.87 458.399C1159.04 464.468 1157.34 469.54 1155.28 475.539C1154.32 478.313 1152.15 480.936 1152.41 483.858C1152.5 484.949 1154.11 482.127 1155.21 482.137C1159.53 482.176 1159.22 490.956 1159.33 493.11C1159.41 494.788 1157.97 505.973 1161.84 499.278C1165.42 493.087 1168.31 486.352 1170.52 479.555C1170.66 479.12 1171.63 476.111 1171.63 475.001C1171.63 474.517 1171.02 475.77 1170.84 476.22C1169.32 480.057 1169.3 484.094 1169.26 488.162C1169.21 494.402 1170.18 488.242 1170.41 488.735C1170.75 489.449 1170.1 492.499 1170.84 492.823C1172.39 493.505 1179 472.21 1179.41 470.806C1181.18 464.708 1184.06 445.874 1183.46 452.195C1182.12 466.336 1180.86 480.506 1180.81 494.724C1180.8 497.271 1181.11 499.816 1181.02 502.362C1180.99 503.313 1181.38 504.937 1180.45 505.159C1179.35 505.421 1178.37 504.077 1177.72 503.151C1176.05 500.746 1174.6 498.135 1173.64 495.369C1170.83 487.345 1169.78 481.339 1174.1 473.423C1181.35 460.154 1195.53 459.405 1207.34 453.02" stroke="white" stroke-width="2" stroke-linecap="round"/>
</svg>
