<svg width="1280" height="1021" viewBox="0 0 1280 1021" fill="none" xmlns="http://www.w3.org/2000/svg">
<rect width="1281" height="1021" fill="#003CFF"/>
<path d="M-3.73828 203H-28.7383V355.5H1286.76V203H3.76172M-3.73828 203V225.5M-3.73828 203H3.76172M3.76172 203V214.5M11.2617 203V214.5M18.7617 203V214.5M26.2617 203V214.5M34.2617 203V220.5M41.7617 203V214.5M49.2617 203V214.5M56.7617 203V214.5M64.2617 203V214.5M72.7617 225.5V203H80.2617V214.5M87.7617 203V214.5M95.2617 203V214.5M102.762 203V214.5M110.762 203V220.5M118.262 203V214.5M125.762 203V214.5M133.262 203V214.5M217.762 203V214.5M149.262 203V225.5M157.262 203V214.5M164.762 203V214.5M172.262 203V214.5M179.762 203V214.5M187.762 203V220.5M195.262 203V214.5M279.262 203V214.5M210.262 203V214.5M226.262 203V225.5M294.262 203V214.5M233.762 203V214.5M241.262 203V214.5M248.762 203V214.5M256.262 203V214.5M264.262 203V220.5M271.762 203V214.5M362.762 203V214.5M302.762 203V225.5M355.262 203V214.5M370.262 203V214.5M309.762 203V214.5M317.262 203V214.5M324.762 203V214.5M332.262 203V214.5M340.262 203V220.5M347.762 203V214.5M378.762 203V225.5M439.762 203V214.5M432.262 203V214.5M447.262 203V214.5M386.762 203V214.5M394.262 203V214.5M401.762 203V214.5M409.262 203V214.5M417.262 203V220.5M424.762 203V214.5M455.762 203V225.5M141 203V214.5M203 203V214.5M287 203V214.5" stroke="white"/>
<path d="M508.762 203V214.5M523.762 203V214.5M463.262 203V214.5M470.762 203V214.5M478.262 203V214.5M485.762 203V214.5M493.762 203V220.5M501.262 203V214.5M516.262 203V214.5M532.262 203V225.5" stroke="white"/>
<path d="M584.762 203V214.5M599.762 203V214.5M539.262 203V214.5M546.762 203V214.5M554.262 203V214.5M561.762 203V214.5M569.762 203V220.5M577.262 203V214.5M592.262 203V214.5M608.262 203V225.5" stroke="white"/>
<path d="M660.762 203V214.5M675.762 203V214.5M615.262 203V214.5M622.762 203V214.5M630.262 203V214.5M637.762 203V214.5M645.762 203V220.5M653.262 203V214.5M668.262 203V214.5M684.262 203V225.5" stroke="white"/>
<path d="M736.762 203V214.5M751.762 203V214.5M691.262 203V214.5M698.762 203V214.5M706.262 203V214.5M713.762 203V214.5M721.762 203V220.5M729.262 203V214.5M744.262 203V214.5M760.262 203V225.5" stroke="white"/>
<path d="M812.762 203V214.5M827.762 203V214.5M767.262 203V214.5M774.762 203V214.5M782.262 203V214.5M789.762 203V214.5M797.762 203V220.5M805.262 203V214.5M820.262 203V214.5M836.262 203V225.5" stroke="white"/>
<path d="M888.762 203V214.5M903.762 203V214.5M843.262 203V214.5M850.762 203V214.5M858.262 203V214.5M865.762 203V214.5M873.762 203V220.5M881.262 203V214.5M896.262 203V214.5M912.262 203V225.5" stroke="white"/>
<path d="M964.762 203V214.5M979.762 203V214.5M919.262 203V214.5M926.762 203V214.5M934.262 203V214.5M941.762 203V214.5M949.762 203V220.5M957.262 203V214.5M972.262 203V214.5M988.262 203V225.5" stroke="white"/>
<path d="M1040.76 203V214.5M1055.76 203V214.5M995.262 203V214.5M1002.76 203V214.5M1010.26 203V214.5M1017.76 203V214.5M1025.76 203V220.5M1033.26 203V214.5M1048.26 203V214.5M1064.26 203V225.5" stroke="white"/>
<path d="M1116.76 203V214.5M1131.76 203V214.5M1071.26 203V214.5M1078.76 203V214.5M1086.26 203V214.5M1093.76 203V214.5M1101.76 203V220.5M1109.26 203V214.5M1124.26 203V214.5M1140.26 203V225.5" stroke="white"/>
<path d="M1192.76 203V214.5M1207.76 203V214.5M1147.26 203V214.5M1154.76 203V214.5M1162.26 203V214.5M1169.76 203V214.5M1177.76 203V220.5M1185.26 203V214.5M1200.26 203V214.5M1216.26 203V225.5" stroke="white"/>
<path d="M1268.76 203V214.5M1283.76 203V214.5M1223.26 203V214.5M1230.76 203V214.5M1238.26 203V214.5M1245.76 203V214.5M1253.76 203V220.5M1261.26 203V214.5M1276.26 203V214.5M1292.26 203V225.5" stroke="white"/>
<path d="M289.685 157.5H430.766M289.685 157.5L282 165M289.685 157.5L282 150M430.766 157.5L439 150M430.766 157.5L439 165" stroke="white"/>
<path d="M35 157.507H212M35 157.507L44.1182 165M35 157.507L44.1182 150M212 157.507L201.809 150M212 157.507L201.809 165" stroke="white"/>
<path d="M640.5 626.005V583.005M640.5 626.005C647.206 625.971 653.704 626.172 660 626.59M640.5 626.005C635.206 626.031 630.041 626.199 625 626.504M639.31 828.505H843.12C843.12 827.844 843.116 827.177 843.108 826.505M639.31 828.505H435.5C435.508 827.844 435.52 827.178 435.535 826.505M639.31 828.505L640.5 859.505M599 587.005L607.5 628.159M607.5 628.159C613.158 627.422 618.99 626.867 625 626.504M607.5 628.159C601.115 628.99 594.95 630.052 589 631.327M557.5 598.505L572 635.71M572 635.71C577.462 634.052 583.127 632.586 589 631.327M572 635.71C565.919 637.555 560.089 639.638 554.5 641.935M518 616.005L538 649.687M538 649.687C543.25 646.892 548.747 644.3 554.5 641.935M538 649.687C532.558 652.584 527.38 655.699 522.457 659.005M482 640.005L508 669.827M508 669.827C512.556 666.037 517.371 662.419 522.457 659.005M508 669.827C503.219 673.805 498.724 677.973 494.5 682.296M451.5 669.827L482.785 695.505M482.785 695.505C486.435 690.973 490.335 686.559 494.5 682.296M482.785 695.505C478.913 700.313 475.323 705.254 472 710.287M425.5 705.505L462.611 726.005M462.611 726.005C465.472 720.698 468.596 715.444 472 710.287M462.611 726.005C459.935 730.97 457.489 735.981 455.261 741.005M408 744.505L448.524 758.005M448.524 758.005C450.506 752.357 452.745 746.674 455.261 741.005M448.524 758.005C446.575 763.556 444.874 769.072 443.401 774.505M395.5 785.505L439.553 791.005M439.553 791.005C440.606 785.629 441.882 780.111 443.401 774.505M439.553 791.005C438.335 797.221 437.415 803.249 436.761 809.005M391.5 826.505H435.535M435.535 826.505C435.664 821.052 436.059 815.185 436.761 809.005M895.91 826.505H843.108M843.108 826.505C843.047 821.194 842.742 815.497 842.157 809.505M884 806.005L842.157 809.505M842.157 809.505C841.594 803.749 840.773 797.722 839.661 791.505M891.5 782.005L839.661 791.505M839.661 791.505C838.728 786.289 837.59 780.939 836.228 775.505M875.5 764.505L836.228 775.505M836.228 775.505C834.826 769.911 833.187 764.227 831.289 758.505M879.5 741.005L831.289 758.505M831.289 758.505C829.526 753.19 827.54 747.842 825.315 742.505M860.5 726.505L825.315 742.505M825.315 742.505C823.082 737.147 820.607 731.8 817.874 726.505M860.5 702.505L817.874 726.505M817.874 726.505C815.314 721.545 812.527 716.631 809.5 711.798M839.661 690.505L809.5 711.798M809.5 711.798C806.348 706.766 802.935 701.821 799.246 697.005M835 668.005L799.246 697.005M799.246 697.005C795.7 692.375 791.899 687.864 787.829 683.505M812 660.505L787.829 683.505M787.829 683.505C783.819 679.21 779.547 675.064 775 671.099M803.5 638.505L775 671.099M775 671.099C770.595 667.258 765.933 663.588 761 660.119M780 634.505L761 660.119M761 660.119C756.254 656.782 751.257 653.63 746 650.692M768 614.505L746 650.692M746 650.692C740.914 647.85 735.584 645.207 730 642.789M743.5 614.505L730 642.789M730 642.789C724.576 640.44 718.912 638.303 713 636.4M728.5 596.505L713 636.4M713 636.4C707.393 634.596 701.562 633.002 695.5 631.638M704.5 601.505L695.5 631.638M695.5 631.638C689.868 630.371 684.037 629.303 678 628.449M686 586.005L678 628.449M678 628.449C672.192 627.627 666.194 627.003 660 626.59M663 594.505L660 626.59M622 594.505L625 626.504M580.5 602.505L589 631.327M541.5 616.005L554.5 641.935M505.5 636.505L522.457 659.005M474 662.505L494.5 682.296M446.5 693.005L472 710.287M425.5 728.005L455.261 741.005M411.5 766.505L443.401 774.505M403.5 807.005L436.761 809.005M1049 966.505V828.505H1005.22C997.245 710.171 913.144 473.805 640.5 475.005C367.856 476.205 283.565 711.171 275.5 828.505H232V966.505H1049Z" stroke="white"/>
<g clip-path="url(#clip0_553_25562)">
<path d="M511 967V955.5M496 967V955.5M556.5 967V955.5M549 967V955.5M541.5 967V955.5M534 967V955.5M526 967V949.5M518.5 967V955.5M503.5 967V955.5M487.5 967V944.5" stroke="white"/>
<path d="M587.5 967V955.5M572.5 967V955.5M633 967V955.5M625.5 967V955.5M618 967V955.5M610.5 967V955.5M602.5 967V949.5M595 967V955.5M580 967V955.5M564 967V944.5" stroke="white"/>
<path d="M664 967V955.5M649 967V955.5M709.5 967V955.5M702 967V955.5M694.5 967V955.5M687 967V955.5M679 967V949.5M671.5 967V955.5M656.5 967V955.5M640.5 967V944.5" stroke="white"/>
<path d="M740.5 967V955.5M725.5 967V955.5M786 967V955.5M778.5 967V955.5M771 967V955.5M763.5 967V955.5M755.5 967V949.5M748 967V955.5M733 967V955.5M717 967V944.5" stroke="white"/>
<path d="M817 967V955.5M802 967V955.5M862.5 967V955.5M855 967V955.5M847.5 967V955.5M840 967V955.5M832 967V949.5M824.5 967V955.5M809.5 967V955.5M793.5 967V944.5" stroke="white"/>
<path d="M893.5 967V955.5M878.5 967V955.5M939 967V955.5M931.5 967V955.5M924 967V955.5M916.5 967V955.5M908.5 967V949.5M901 967V955.5M886 967V955.5M870 967V944.5" stroke="white"/>
<path d="M970 967V955.5M955 967V955.5M1015.5 967V955.5M1008 967V955.5M1000.5 967V955.5M993 967V955.5M985 967V949.5M977.5 967V955.5M962.5 967V955.5M946.5 967V944.5" stroke="white"/>
<path d="M435 967V955.5M420 967V955.5M480.5 967V955.5M473 967V955.5M465.5 967V955.5M458 967V955.5M450 967V949.5M442.5 967V955.5M427.5 967V955.5M411.5 967V944.5" stroke="white"/>
<path d="M359 967V955.5M344 967V955.5M404.5 967V955.5M397 967V955.5M389.5 967V955.5M382 967V955.5M374 967V949.5M366.5 967V955.5M351.5 967V955.5M335.5 967V944.5" stroke="white"/>
<path d="M283 967V955.5M268 967V955.5M328.5 967V955.5M321 967V955.5M313.5 967V955.5M306 967V955.5M298 967V949.5M290.5 967V955.5M275.5 967V955.5M259.5 967V944.5" stroke="white"/>
<path d="M1024 967V944.5" stroke="white"/>
</g>
<path d="M628.888 537.216C631.512 537.216 633.581 538.144 635.096 540C636.611 541.835 637.368 544.405 637.368 547.712C637.432 551.296 636.568 554.315 634.776 556.768C632.984 559.2 630.605 560.405 627.64 560.384C625.784 560.384 624.205 559.925 622.904 559.008V556.736C624.312 557.696 625.827 558.176 627.448 558.176C629.133 558.176 630.563 557.696 631.736 556.736C632.909 555.776 633.741 554.603 634.232 553.216C634.744 551.829 635.021 550.293 635.064 548.608C634.467 549.632 633.592 550.443 632.44 551.04C631.309 551.637 629.997 551.936 628.504 551.936C626.499 551.936 624.781 551.275 623.352 549.952C621.965 548.608 621.272 546.891 621.272 544.8C621.272 542.624 621.997 540.811 623.448 539.36C624.899 537.931 626.712 537.216 628.888 537.216ZM629.016 539.424C627.501 539.424 626.211 539.936 625.144 540.96C624.12 541.963 623.608 543.243 623.608 544.8C623.608 546.336 624.131 547.563 625.176 548.48C626.221 549.397 627.523 549.856 629.08 549.856C630.381 549.856 631.597 549.44 632.728 548.608C633.816 547.797 634.573 546.763 635 545.504C634.808 543.563 634.189 542.069 633.144 541.024C632.12 539.957 630.744 539.424 629.016 539.424ZM641.004 548.8C641.004 545.515 641.847 542.773 643.532 540.576C645.239 538.336 647.457 537.216 650.188 537.216C652.897 537.216 655.105 538.325 656.812 540.544C658.497 542.741 659.34 545.493 659.34 548.8C659.34 552.107 658.497 554.859 656.812 557.056C655.105 559.275 652.897 560.384 650.188 560.384C647.457 560.384 645.239 559.275 643.532 557.056C641.847 554.859 641.004 552.107 641.004 548.8ZM657.004 548.8C657.004 546.133 656.364 543.904 655.084 542.112C653.804 540.32 652.172 539.424 650.188 539.424C648.204 539.424 646.572 540.32 645.292 542.112C644.012 543.904 643.372 546.133 643.372 548.8C643.372 551.467 644.001 553.707 645.26 555.52C646.54 557.291 648.183 558.176 650.188 558.176C652.193 558.176 653.825 557.291 655.084 555.52C656.364 553.728 657.004 551.488 657.004 548.8Z" fill="white"/>
<path d="M583.574 545.934C584.343 545.985 584.984 546.217 585.496 546.631C586.008 547.045 586.328 547.598 586.458 548.29C586.642 549.265 586.389 550.116 585.701 550.842C585.012 551.568 584.07 552.044 582.875 552.268C581.68 552.493 580.63 552.391 579.725 551.964C578.82 551.537 578.276 550.837 578.093 549.862C577.963 549.17 578.061 548.538 578.388 547.967C578.725 547.393 579.243 546.943 579.941 546.616C579.332 546.492 578.824 546.246 578.419 545.877C578.011 545.498 577.753 545.02 577.645 544.443C577.485 543.594 577.701 542.837 578.293 542.173C578.884 541.508 579.699 541.078 580.737 540.883C581.785 540.686 582.705 540.79 583.498 541.195C584.29 541.599 584.766 542.226 584.925 543.075C585.034 543.652 584.967 544.191 584.724 544.692C584.48 545.183 584.097 545.597 583.574 545.934ZM578.763 544.331C578.873 544.918 579.203 545.344 579.752 545.61C580.302 545.876 580.938 545.941 581.661 545.805C582.395 545.667 582.969 545.37 583.382 544.912C583.795 544.455 583.949 543.943 583.842 543.377C583.732 542.79 583.396 542.359 582.834 542.084C582.273 541.81 581.636 541.74 580.923 541.874C580.21 542.008 579.642 542.304 579.218 542.764C578.802 543.211 578.651 543.733 578.763 544.331ZM580.414 551.037C581.082 551.357 581.84 551.437 582.689 551.277C583.538 551.118 584.216 550.768 584.722 550.228C585.227 549.677 585.419 549.082 585.299 548.443C585.175 547.782 584.786 547.302 584.133 547.001C583.469 546.703 582.707 546.634 581.847 546.796C580.988 546.957 580.308 547.297 579.808 547.814C579.308 548.331 579.121 548.92 579.245 549.58C579.365 550.22 579.754 550.705 580.414 551.037ZM587.617 545.484C587.314 543.87 587.475 542.445 588.1 541.209C588.732 539.951 589.719 539.196 591.061 538.944C592.392 538.694 593.579 539.035 594.623 539.968C595.654 540.892 596.322 542.167 596.627 543.791C596.932 545.416 596.772 546.846 596.147 548.082C595.513 549.33 594.531 550.079 593.199 550.329C591.857 550.581 590.665 550.24 589.621 549.308C588.59 548.383 587.922 547.109 587.617 545.484ZM595.479 544.007C595.233 542.697 594.713 541.66 593.918 540.898C593.124 540.135 592.239 539.846 591.264 540.029C590.289 540.212 589.57 540.803 589.107 541.802C588.643 542.8 588.534 543.955 588.78 545.265C589.027 546.576 589.543 547.618 590.329 548.393C591.121 549.145 592.01 549.429 592.995 549.244C593.981 549.059 594.701 548.473 595.156 547.487C595.62 546.488 595.727 545.328 595.479 544.007ZM582.345 572.522L581.197 572.738L579.366 562.988L577.163 564.867L576.953 563.751L579.255 561.707L580.278 561.515L582.345 572.522ZM583.765 566.557C583.462 564.943 583.623 563.518 584.248 562.283C584.88 561.024 585.867 560.269 587.209 560.017C588.54 559.767 589.728 560.108 590.771 561.041C591.802 561.965 592.47 563.24 592.776 564.865C593.081 566.49 592.921 567.92 592.295 569.155C591.662 570.403 590.679 571.152 589.348 571.402C588.006 571.654 586.813 571.314 585.77 570.381C584.739 569.457 584.07 568.182 583.765 566.557ZM591.628 565.08C591.382 563.77 590.861 562.734 590.067 561.971C589.272 561.209 588.388 560.919 587.413 561.102C586.438 561.285 585.719 561.876 585.255 562.875C584.791 563.874 584.683 565.028 584.929 566.339C585.175 567.649 585.691 568.692 586.477 569.467C587.269 570.219 588.158 570.502 589.144 570.317C590.129 570.132 590.849 569.546 591.305 568.56C591.768 567.561 591.876 566.401 591.628 565.08ZM594.584 564.525C594.281 562.911 594.442 561.486 595.067 560.25C595.699 558.992 596.686 558.237 598.028 557.985C599.359 557.735 600.547 558.076 601.59 559.009C602.621 559.933 603.289 561.208 603.595 562.832C603.9 564.457 603.74 565.887 603.114 567.123C602.48 568.371 601.498 569.12 600.166 569.37C598.825 569.622 597.632 569.281 596.588 568.349C595.557 567.425 594.889 566.15 594.584 564.525ZM602.447 563.048C602.2 561.738 601.68 560.701 600.886 559.939C600.091 559.176 599.207 558.887 598.232 559.07C597.257 559.253 596.537 559.844 596.074 560.843C595.61 561.841 595.502 562.996 595.748 564.306C595.994 565.617 596.51 566.66 597.296 567.434C598.088 568.186 598.977 568.47 599.963 568.285C600.948 568.1 601.668 567.514 602.123 566.528C602.587 565.529 602.695 564.369 602.447 563.048Z" fill="white"/>
<path d="M537.528 568.548L536.356 568.975L537.7 557.706L532.032 559.771L531.665 558.763L538.611 556.233L538.912 557.06L537.528 568.548ZM541.731 561.057C541.169 559.513 541.095 558.081 541.511 556.761C541.929 555.416 542.78 554.51 544.063 554.043C545.336 553.579 546.563 553.723 547.744 554.473C548.912 555.217 549.779 556.366 550.345 557.919C550.911 559.472 550.986 560.91 550.57 562.23C550.148 563.565 549.301 564.464 548.028 564.927C546.745 565.395 545.513 565.253 544.331 564.503C543.163 563.759 542.297 562.61 541.731 561.057ZM549.248 558.319C548.791 557.066 548.109 556.128 547.201 555.505C546.293 554.882 545.373 554.741 544.441 555.08C543.509 555.42 542.895 556.12 542.601 557.181C542.306 558.242 542.387 559.399 542.843 560.652C543.3 561.904 543.979 562.849 544.88 563.486C545.785 564.098 546.708 564.233 547.65 563.89C548.592 563.547 549.207 562.852 549.496 561.804C549.79 560.743 549.708 559.582 549.248 558.319ZM544.238 587.389L543.14 587.789L539.745 578.468L537.878 580.681L537.489 579.614L539.427 577.222L540.404 576.866L544.238 587.389ZM549.545 585.456L548.448 585.856L545.053 576.535L543.185 578.748L542.796 577.68L544.735 575.288L545.712 574.932L549.545 585.456ZM549.975 579.339C549.412 577.796 549.339 576.364 549.755 575.043C550.173 573.699 551.024 572.793 552.307 572.326C553.58 571.862 554.807 572.005 555.988 572.756C557.156 573.499 558.023 574.648 558.589 576.202C559.155 577.755 559.23 579.192 558.814 580.513C558.392 581.847 557.545 582.746 556.272 583.21C554.989 583.677 553.757 583.536 552.575 582.786C551.407 582.042 550.54 580.893 549.975 579.339ZM557.491 576.601C557.035 575.349 556.353 574.411 555.445 573.788C554.537 573.165 553.617 573.023 552.685 573.363C551.753 573.702 551.139 574.403 550.845 575.464C550.55 576.525 550.631 577.681 551.087 578.934C551.543 580.187 552.222 581.132 553.124 581.768C554.028 582.381 554.952 582.516 555.894 582.173C556.836 581.829 557.451 581.134 557.739 580.087C558.034 579.026 557.951 577.864 557.491 576.601Z" fill="white"/>
<path d="M493.073 589.112C491.969 589.82 490.85 589.992 489.717 589.628C488.573 589.246 487.558 588.364 486.672 586.98C485.679 585.489 485.231 583.989 485.33 582.482C485.422 580.966 486.096 579.812 487.35 579.021C488.131 578.521 488.92 578.288 489.715 578.323L490.328 579.28C489.476 579.255 488.709 579.462 488.026 579.899C487.317 580.354 486.844 580.941 486.609 581.662C486.374 582.383 486.336 583.104 486.494 583.826C486.662 584.542 486.964 585.261 487.401 585.982C487.376 585.389 487.521 584.815 487.836 584.259C488.16 583.696 488.636 583.214 489.265 582.811C490.127 582.259 491.027 582.081 491.964 582.279C492.908 582.447 493.665 582.976 494.234 583.865C494.827 584.79 495.006 585.752 494.772 586.751C494.556 587.738 493.989 588.525 493.073 589.112ZM492.424 588.217C493.062 587.808 493.465 587.252 493.635 586.548C493.799 585.835 493.671 585.151 493.251 584.495C492.836 583.848 492.286 583.473 491.598 583.369C490.911 583.264 490.239 583.422 489.583 583.842C489.026 584.199 488.627 584.702 488.384 585.352C488.145 585.986 488.105 586.626 488.265 587.271C488.869 588.037 489.531 588.506 490.25 588.679C490.972 588.837 491.696 588.683 492.424 588.217ZM494.686 581.2C493.8 579.817 493.415 578.436 493.532 577.056C493.647 575.653 494.279 574.583 495.428 573.846C496.569 573.115 497.798 572.987 499.115 573.461C500.417 573.931 501.514 574.862 502.406 576.255C503.298 577.647 503.685 579.033 503.568 580.412C503.448 581.807 502.818 582.869 501.677 583.6C500.528 584.337 499.294 584.468 497.977 583.994C496.675 583.524 495.578 582.592 494.686 581.2ZM501.422 576.885C500.703 575.762 499.832 574.996 498.81 574.587C497.788 574.178 496.859 574.241 496.024 574.776C495.189 575.311 494.743 576.128 494.688 577.228C494.632 578.328 494.964 579.439 495.683 580.561C496.402 581.684 497.272 582.457 498.291 582.881C499.307 583.282 500.237 583.211 501.082 582.67C501.926 582.13 502.374 581.317 502.427 580.232C502.482 579.132 502.147 578.016 501.422 576.885ZM500.851 607.654L499.868 608.284L494.516 599.931L493.178 602.498L492.565 601.542L493.934 598.784L494.809 598.223L500.851 607.654ZM509.07 602.388L502.644 606.505L502.169 605.764L503.406 600.696C503.681 599.583 503.828 598.735 503.848 598.152C503.865 597.546 503.706 596.982 503.373 596.461C503.016 595.904 502.531 595.582 501.917 595.494C501.297 595.397 500.669 595.552 500.031 595.961C499.034 596.6 498.397 597.603 498.121 598.971L497.404 597.853C497.743 596.622 498.452 595.661 499.53 594.971C500.401 594.413 501.282 594.197 502.173 594.322C503.079 594.451 503.786 594.911 504.292 595.701C504.695 596.33 504.906 597.005 504.925 597.728C504.939 598.441 504.794 599.402 504.491 600.609L503.52 604.67L508.492 601.486L509.07 602.388ZM507.412 596.799C506.526 595.416 506.142 594.035 506.259 592.655C506.373 591.252 507.005 590.182 508.155 589.445C509.295 588.715 510.524 588.586 511.841 589.06C513.143 589.53 514.24 590.462 515.132 591.854C516.024 593.246 516.411 594.632 516.295 596.012C516.174 597.406 515.544 598.469 514.403 599.199C513.254 599.936 512.02 600.067 510.704 599.593C509.401 599.123 508.304 598.192 507.412 596.799ZM514.149 592.484C513.429 591.361 512.559 590.595 511.536 590.186C510.514 589.777 509.585 589.84 508.75 590.375C507.915 590.91 507.469 591.727 507.414 592.827C507.358 593.927 507.69 595.038 508.409 596.161C509.129 597.283 509.998 598.057 511.017 598.481C512.033 598.881 512.964 598.811 513.808 598.27C514.652 597.729 515.1 596.916 515.153 595.831C515.208 594.731 514.874 593.616 514.149 592.484Z" fill="white"/>
<path d="M453.33 616.636C452.386 617.402 451.432 617.86 450.468 618.009L449.722 617.09C450.744 616.961 451.707 616.531 452.61 615.798C453.347 615.2 453.801 614.516 453.973 613.745C454.144 612.974 453.988 612.291 453.504 611.694C453.027 611.106 452.413 610.814 451.661 610.82C450.912 610.81 450.164 611.107 449.418 611.712C448.706 612.29 448.108 612.974 447.623 613.766L444.687 608.978L448.986 605.49L449.662 606.323L446.058 609.246L447.746 612.038C448.057 611.608 448.473 611.181 448.995 610.758C449.906 610.019 450.875 609.665 451.904 609.696C452.918 609.711 453.758 610.128 454.423 610.948C455.122 611.81 455.359 612.771 455.135 613.832C454.909 614.908 454.307 615.843 453.33 616.636ZM454.511 608.22C453.476 606.944 452.94 605.614 452.902 604.23C452.859 602.823 453.368 601.689 454.428 600.829C455.48 599.975 456.687 599.711 458.049 600.034C459.395 600.357 460.589 601.16 461.631 602.444C462.672 603.728 463.212 605.062 463.25 606.446C463.286 607.845 462.778 608.972 461.726 609.825C460.666 610.685 459.455 610.953 458.093 610.629C456.746 610.307 455.552 609.504 454.511 608.22ZM460.724 603.18C459.884 602.144 458.933 601.48 457.872 601.188C456.81 600.895 455.894 601.061 455.124 601.686C454.353 602.311 454.002 603.173 454.069 604.272C454.137 605.371 454.59 606.438 455.43 607.474C456.27 608.509 457.22 609.181 458.28 609.488C459.335 609.773 460.252 609.599 461.03 608.968C461.809 608.336 462.164 607.478 462.095 606.394C462.027 605.295 461.57 604.224 460.724 603.18ZM463.885 633.579L462.978 634.315L456.728 626.611L455.685 629.312L454.969 628.43L456.021 625.536L456.829 624.881L463.885 633.579ZM468.156 630.361C467.138 631.188 466.121 631.662 465.108 631.784L464.331 630.827C465.432 630.745 466.459 630.317 467.411 629.544C468.066 629.013 468.489 628.368 468.683 627.607C468.869 626.837 468.707 626.138 468.196 625.508C467.712 624.912 467.11 624.61 466.391 624.604C465.673 624.582 464.953 624.863 464.232 625.448C463.885 625.73 463.595 626.034 463.364 626.358L462.85 625.725L463.407 620.925L459.481 624.111L458.805 623.278L463.974 619.085L464.529 619.768L463.998 624.422C464.774 623.821 465.657 623.53 466.648 623.55C467.648 623.563 468.47 623.967 469.116 624.762C469.814 625.624 470.063 626.583 469.862 627.639C469.661 628.694 469.093 629.602 468.156 630.361ZM469.146 622.101C468.111 620.825 467.575 619.495 467.537 618.111C467.494 616.703 468.003 615.57 469.063 614.71C470.116 613.856 471.322 613.591 472.684 613.915C474.03 614.238 475.225 615.041 476.266 616.325C477.308 617.609 477.847 618.943 477.885 620.327C477.921 621.726 477.413 622.852 476.361 623.706C475.301 624.566 474.09 624.834 472.728 624.51C471.382 624.188 470.188 623.385 469.146 622.101ZM475.359 617.061C474.519 616.025 473.568 615.361 472.507 615.069C471.445 614.776 470.529 614.942 469.759 615.567C468.989 616.192 468.637 617.054 468.704 618.153C468.772 619.252 469.226 620.319 470.066 621.355C470.906 622.39 471.856 623.062 472.915 623.369C473.97 623.654 474.887 623.48 475.666 622.849C476.444 622.217 476.799 621.359 476.73 620.275C476.663 619.176 476.206 618.105 475.359 617.061Z" fill="white"/>
<path d="M419.097 650.836L418.379 651.736L415.965 649.81L412.213 654.513L411.475 653.924L409.634 644.739L410.342 643.851L415.846 648.241L417.003 646.79L417.841 647.459L416.684 648.91L419.097 650.836ZM410.85 645.729L412.233 652.769L415.127 649.142L410.85 645.729ZM416.674 644.894C415.39 643.87 414.581 642.686 414.248 641.342C413.904 639.976 414.158 638.76 415.01 637.692C415.855 636.633 416.977 636.116 418.376 636.141C419.76 636.168 421.099 636.696 422.391 637.727C423.684 638.758 424.497 639.946 424.83 641.29C425.165 642.649 424.91 643.858 424.065 644.917C423.214 645.984 422.088 646.505 420.689 646.48C419.305 646.454 417.966 645.925 416.674 644.894ZM421.663 638.64C420.621 637.809 419.55 637.364 418.45 637.305C417.351 637.247 416.492 637.605 415.873 638.381C415.254 639.156 415.096 640.074 415.397 641.133C415.698 642.192 416.37 643.137 417.412 643.969C418.454 644.8 419.526 645.253 420.627 645.326C421.719 645.378 422.577 645.012 423.202 644.228C423.827 643.444 423.99 642.53 423.691 641.486C423.389 640.427 422.714 639.479 421.663 638.64ZM430.775 668.268L430.047 669.181L422.292 662.994L421.851 665.856L420.963 665.148L421.371 662.096L422.02 661.283L430.775 668.268ZM436.493 661.101L435.775 662.001L433.361 660.075L429.609 664.778L428.871 664.189L427.029 655.004L427.738 654.116L433.241 658.506L434.399 657.055L435.237 657.724L434.079 659.175L436.493 661.101ZM428.245 655.994L429.629 663.034L432.523 659.407L428.245 655.994ZM434.069 655.159C432.785 654.135 431.977 652.951 431.643 651.607C431.3 650.241 431.554 649.025 432.405 647.957C433.25 646.898 434.372 646.381 435.772 646.406C437.156 646.433 438.494 646.961 439.787 647.992C441.079 649.023 441.892 650.211 442.226 651.555C442.561 652.914 442.306 654.123 441.461 655.182C440.609 656.249 439.484 656.77 438.085 656.745C436.7 656.719 435.362 656.19 434.069 655.159ZM439.058 648.905C438.016 648.074 436.945 647.629 435.846 647.57C434.746 647.512 433.887 647.87 433.268 648.646C432.65 649.421 432.491 650.339 432.792 651.398C433.094 652.457 433.765 653.402 434.808 654.234C435.85 655.065 436.922 655.518 438.023 655.591C439.114 655.643 439.972 655.277 440.598 654.493C441.223 653.709 441.386 652.795 441.086 651.751C440.785 650.692 440.109 649.744 439.058 648.905Z" fill="white"/>
<path d="M390.045 694.577C389.485 695.763 388.775 696.631 387.914 697.18L386.8 696.654C387.756 696.103 388.496 695.273 389.019 694.163C389.379 693.401 389.481 692.636 389.325 691.866C389.159 691.092 388.71 690.532 387.977 690.186C387.282 689.858 386.609 689.847 385.958 690.153C385.301 690.445 384.775 691.01 384.379 691.85C384.187 692.255 384.058 692.654 383.991 693.047L383.253 692.698L381.675 688.132L379.517 692.705L378.547 692.247L381.388 686.228L382.184 686.603L383.723 691.027C384.161 690.149 384.831 689.504 385.733 689.092C386.64 688.671 387.556 688.678 388.482 689.115C389.485 689.589 390.125 690.345 390.402 691.384C390.678 692.422 390.559 693.487 390.045 694.577ZM387.356 686.703C385.87 686.002 384.81 685.036 384.176 683.805C383.528 682.556 383.495 681.313 384.077 680.079C384.656 678.854 385.628 678.092 386.996 677.794C388.349 677.5 389.773 677.707 391.268 678.412C392.764 679.118 393.828 680.086 394.462 681.317C395.101 682.562 395.132 683.797 394.554 685.023C393.971 686.257 392.996 687.024 391.628 687.322C390.275 687.615 388.851 687.409 387.356 686.703ZM390.77 679.469C389.564 678.9 388.419 678.713 387.336 678.91C386.253 679.106 385.499 679.653 385.076 680.55C384.652 681.447 384.709 682.376 385.247 683.337C385.784 684.299 386.655 685.064 387.861 685.633C389.067 686.202 390.214 686.395 391.303 686.213C392.376 686.012 393.127 685.458 393.555 684.551C393.983 683.645 393.931 682.718 393.399 681.771C392.862 680.81 391.985 680.042 390.77 679.469ZM406.796 705.493L406.297 706.55L397.326 702.316L397.556 705.202L396.529 704.717L396.223 701.654L396.667 700.713L406.796 705.493ZM409.319 700.597C408.8 701.697 408.139 702.523 407.335 703.076L406.265 702.57C407.13 702.011 407.811 701.206 408.307 700.155C408.712 699.296 408.825 698.482 408.645 697.714C408.465 696.945 408.028 696.396 407.334 696.069C406.649 695.745 405.969 695.749 405.294 696.079C404.614 696.395 404.069 696.987 403.66 697.856C403.268 698.685 403.026 699.561 402.932 700.484L398.211 697.443L400.573 692.436L401.543 692.894L399.563 697.09L402.294 698.874C402.387 698.352 402.577 697.787 402.864 697.179C403.365 696.118 404.085 695.379 405.025 694.962C405.946 694.535 406.884 694.547 407.839 694.998C408.842 695.471 409.473 696.235 409.73 697.288C409.993 698.356 409.856 699.459 409.319 700.597ZM406.735 692.501C405.249 691.8 404.19 690.834 403.556 689.603C402.907 688.353 402.874 687.111 403.457 685.876C404.035 684.651 405.008 683.89 406.375 683.591C407.728 683.298 409.152 683.504 410.648 684.21C412.143 684.915 413.207 685.884 413.841 687.115C414.48 688.36 414.511 689.595 413.933 690.82C413.35 692.055 412.375 692.821 411.008 693.12C409.654 693.413 408.23 693.207 406.735 692.501ZM410.149 685.266C408.943 684.697 407.799 684.511 406.715 684.707C405.632 684.904 404.878 685.45 404.455 686.347C404.032 687.245 404.089 688.174 404.626 689.135C405.163 690.096 406.034 690.861 407.24 691.43C408.446 691.999 409.593 692.193 410.682 692.01C411.756 691.81 412.506 691.256 412.934 690.349C413.362 689.442 413.31 688.515 412.778 687.568C412.241 686.607 411.365 685.84 410.149 685.266Z" fill="white"/>
<path d="M370.463 732.905L367.905 740.096L367.076 739.801L364.95 735.036C364.485 733.988 364.082 733.228 363.741 732.755C363.383 732.265 362.912 731.917 362.329 731.71C361.706 731.488 361.125 731.53 360.586 731.836C360.037 732.139 359.635 732.647 359.381 733.361C358.984 734.476 359.096 735.659 359.715 736.91L358.464 736.465C357.978 735.284 357.95 734.091 358.379 732.885C358.726 731.91 359.29 731.2 360.071 730.753C360.867 730.3 361.706 730.231 362.591 730.546C363.294 730.796 363.875 731.201 364.333 731.76C364.78 732.315 365.254 733.163 365.754 734.304L367.474 738.108L369.453 732.546L370.463 732.905ZM365.73 729.503C364.182 728.952 363.032 728.096 362.28 726.933C361.511 725.754 361.355 724.521 361.813 723.235C362.267 721.958 363.159 721.104 364.491 720.672C365.808 720.247 367.246 720.311 368.803 720.865C370.361 721.419 371.516 722.278 372.269 723.44C373.028 724.616 373.18 725.842 372.726 727.118C372.269 728.404 371.374 729.264 370.043 729.696C368.725 730.121 367.288 730.057 365.73 729.503ZM368.412 721.966C367.156 721.519 365.998 721.446 364.94 721.749C363.881 722.052 363.185 722.67 362.853 723.605C362.52 724.539 362.669 725.458 363.298 726.362C363.928 727.265 364.871 727.94 366.127 728.387C367.383 728.834 368.544 728.913 369.609 728.624C370.658 728.318 371.35 727.693 371.686 726.748C372.022 725.803 371.879 724.886 371.256 723.996C370.626 723.093 369.678 722.416 368.412 721.966ZM386.805 746.638L386.414 747.739L377.068 744.413L377.582 747.263L376.512 746.882L375.905 743.863L376.253 742.884L386.805 746.638ZM389.266 740.295C388.826 741.531 388.047 742.353 386.929 742.759C385.791 743.157 384.448 743.081 382.9 742.531C381.201 741.96 379.929 741.049 379.084 739.797C378.228 738.542 378.054 737.217 378.561 735.824C378.872 734.95 379.353 734.283 380.003 733.824L381.074 734.205C380.385 734.707 379.905 735.34 379.634 736.104C379.351 736.898 379.338 737.652 379.593 738.365C379.849 739.079 380.26 739.672 380.828 740.146C381.399 740.61 382.078 740.993 382.864 741.295C382.482 740.842 382.245 740.299 382.153 739.667C382.065 739.024 382.146 738.351 382.396 737.647C382.739 736.682 383.342 735.991 384.204 735.573C385.053 735.128 385.975 735.083 386.97 735.437C388.005 735.805 388.736 736.456 389.162 737.389C389.596 738.301 389.631 739.27 389.266 740.295ZM388.204 739.986C388.458 739.272 388.437 738.585 388.139 737.925C387.832 737.261 387.312 736.798 386.578 736.537C385.855 736.28 385.189 736.32 384.582 736.659C383.975 736.997 383.54 737.534 383.279 738.267C383.058 738.89 383.05 739.533 383.256 740.195C383.455 740.843 383.816 741.373 384.337 741.785C385.284 742.02 386.094 741.986 386.768 741.682C387.436 741.365 387.915 740.8 388.204 739.986ZM385.695 733.053C384.147 732.503 382.997 731.646 382.245 730.484C381.476 729.305 381.32 728.072 381.778 726.785C382.232 725.509 383.124 724.655 384.456 724.223C385.773 723.797 387.211 723.862 388.768 724.416C390.326 724.97 391.481 725.828 392.234 726.99C392.993 728.166 393.145 729.392 392.691 730.669C392.234 731.955 391.339 732.814 390.008 733.246C388.69 733.672 387.253 733.608 385.695 733.053ZM388.377 725.516C387.121 725.069 385.963 724.997 384.905 725.3C383.846 725.602 383.15 726.221 382.818 727.155C382.485 728.09 382.634 729.009 383.263 729.912C383.893 730.816 384.836 731.491 386.092 731.938C387.348 732.385 388.509 732.464 389.574 732.175C390.623 731.869 391.315 731.243 391.651 730.299C391.987 729.354 391.844 728.437 391.221 727.547C390.591 726.644 389.643 725.967 388.377 725.516Z" fill="white"/>
<path d="M356.018 783.362L355.92 784.526L346.035 783.695L347.259 786.319L346.127 786.224L344.77 783.46L344.857 782.424L356.018 783.362ZM350.646 780.405C349.009 780.268 347.679 779.733 346.655 778.801C345.61 777.857 345.145 776.705 345.259 775.344C345.373 773.994 346.018 772.941 347.195 772.183C348.36 771.436 349.767 771.131 351.414 771.269C353.062 771.408 354.398 771.943 355.422 772.875C356.456 773.818 356.916 774.965 356.803 776.315C356.688 777.675 356.043 778.734 354.866 779.491C353.7 780.239 352.294 780.544 350.646 780.405ZM351.316 772.433C349.988 772.322 348.85 772.547 347.904 773.11C346.957 773.673 346.443 774.448 346.359 775.437C346.276 776.425 346.654 777.276 347.494 777.989C348.333 778.701 349.417 779.114 350.746 779.225C352.074 779.337 353.217 779.117 354.173 778.566C355.109 778.003 355.619 777.221 355.703 776.222C355.786 775.223 355.414 774.373 354.584 773.671C353.745 772.959 352.656 772.546 351.316 772.433ZM375.599 789.183L375.501 790.347L365.616 789.516L366.84 792.14L365.708 792.045L364.351 789.281L364.438 788.245L375.599 789.183ZM375.959 784.894L375.855 786.137L366.191 780.187L365.686 786.198L364.618 786.108L365.237 778.742L366.114 778.816L375.959 784.894ZM370.925 777.935C369.288 777.797 367.957 777.263 366.933 776.331C365.888 775.387 365.423 774.234 365.538 772.874C365.651 771.524 366.296 770.47 367.473 769.713C368.639 768.965 370.045 768.661 371.693 768.799C373.34 768.938 374.676 769.473 375.7 770.404C376.734 771.348 377.194 772.494 377.081 773.844C376.966 775.205 376.321 776.264 375.144 777.021C373.979 777.769 372.572 778.073 370.925 777.935ZM371.595 769.963C370.266 769.851 369.128 770.077 368.182 770.639C367.236 771.202 366.721 771.978 366.638 772.966C366.555 773.955 366.933 774.805 367.772 775.518C368.611 776.231 369.695 776.643 371.024 776.755C372.352 776.867 373.495 776.647 374.451 776.096C375.387 775.532 375.897 774.751 375.981 773.752C376.065 772.753 375.692 771.902 374.862 771.201C374.023 770.488 372.934 770.076 371.595 769.963Z" fill="white"/>
<path d="M345.736 830.126C344.093 830.126 342.723 829.705 341.624 828.862C340.504 828.009 339.944 826.9 339.944 825.534C339.944 824.18 340.499 823.076 341.608 822.222C342.707 821.38 344.083 820.958 345.736 820.958C347.389 820.958 348.765 821.38 349.864 822.222C350.973 823.076 351.528 824.18 351.528 825.534C351.528 826.9 350.973 828.009 349.864 828.862C348.765 829.705 347.389 830.126 345.736 830.126ZM345.736 822.126C344.403 822.126 343.288 822.446 342.392 823.086C341.496 823.726 341.048 824.542 341.048 825.534C341.048 826.526 341.496 827.342 342.392 827.982C343.288 828.622 344.403 828.942 345.736 828.942C347.069 828.942 348.189 828.628 349.096 827.998C349.981 827.358 350.424 826.537 350.424 825.534C350.424 824.532 349.981 823.716 349.096 823.086C348.2 822.446 347.08 822.126 345.736 822.126ZM371.336 834.795V835.963H361.416L362.856 838.475H361.72L360.136 835.835V834.795H371.336ZM365.432 826.362C365.624 825.616 365.971 825.029 366.472 824.602C366.973 824.176 367.576 823.962 368.28 823.962C369.272 823.962 370.061 824.368 370.648 825.178C371.235 825.989 371.528 827.002 371.528 828.218C371.528 829.434 371.235 830.448 370.648 831.258C370.061 832.069 369.272 832.474 368.28 832.474C367.576 832.474 366.973 832.261 366.472 831.834C365.971 831.397 365.624 830.805 365.432 830.058C365.197 830.634 364.861 831.088 364.424 831.418C363.976 831.749 363.459 831.914 362.872 831.914C362.008 831.914 361.304 831.562 360.76 830.858C360.216 830.154 359.944 829.274 359.944 828.218C359.944 827.152 360.216 826.266 360.76 825.562C361.304 824.858 362.008 824.506 362.872 824.506C363.459 824.506 363.976 824.672 364.424 825.002C364.861 825.333 365.197 825.786 365.432 826.362ZM362.968 830.794C363.565 830.794 364.045 830.549 364.408 830.058C364.771 829.568 364.952 828.954 364.952 828.218C364.952 827.472 364.765 826.853 364.392 826.362C364.019 825.872 363.544 825.626 362.968 825.626C362.371 825.626 361.885 825.877 361.512 826.378C361.139 826.88 360.952 827.493 360.952 828.218C360.952 828.944 361.139 829.557 361.512 830.058C361.875 830.549 362.36 830.794 362.968 830.794ZM369.864 830.41C370.301 829.813 370.52 829.082 370.52 828.218C370.52 827.354 370.301 826.624 369.864 826.026C369.416 825.429 368.867 825.13 368.216 825.13C367.544 825.13 367 825.424 366.584 826.01C366.168 826.608 365.96 827.344 365.96 828.218C365.96 829.093 366.168 829.824 366.584 830.41C367 830.997 367.544 831.29 368.216 831.29C368.867 831.29 369.416 830.997 369.864 830.41ZM365.736 822.306C364.093 822.306 362.723 821.885 361.624 821.042C360.504 820.189 359.944 819.079 359.944 817.714C359.944 816.359 360.499 815.255 361.608 814.402C362.707 813.559 364.083 813.138 365.736 813.138C367.389 813.138 368.765 813.559 369.864 814.402C370.973 815.255 371.528 816.359 371.528 817.714C371.528 819.079 370.973 820.189 369.864 821.042C368.765 821.885 367.389 822.306 365.736 822.306ZM365.736 814.306C364.403 814.306 363.288 814.626 362.392 815.266C361.496 815.906 361.048 816.722 361.048 817.714C361.048 818.706 361.496 819.522 362.392 820.162C363.288 820.802 364.403 821.122 365.736 821.122C367.069 821.122 368.189 820.807 369.096 820.178C369.981 819.538 370.424 818.717 370.424 817.714C370.424 816.711 369.981 815.895 369.096 815.266C368.2 814.626 367.08 814.306 365.736 814.306Z" fill="white"/>
<path d="M932 818.273V817.105H941.92L940.48 814.593H941.616L943.2 817.233V818.273H932ZM937.904 826.706C937.712 827.453 937.365 828.04 936.864 828.466C936.363 828.893 935.76 829.106 935.056 829.106C934.064 829.106 933.275 828.701 932.688 827.89C932.101 827.08 931.808 826.066 931.808 824.85C931.808 823.634 932.101 822.621 932.688 821.81C933.275 821 934.064 820.594 935.056 820.594C935.76 820.594 936.363 820.808 936.864 821.234C937.365 821.672 937.712 822.264 937.904 823.01C938.139 822.434 938.475 821.981 938.912 821.65C939.36 821.32 939.877 821.154 940.464 821.154C941.328 821.154 942.032 821.506 942.576 822.21C943.12 822.914 943.392 823.794 943.392 824.85C943.392 825.917 943.12 826.802 942.576 827.506C942.032 828.21 941.328 828.562 940.464 828.562C939.877 828.562 939.36 828.397 938.912 828.066C938.475 827.736 938.139 827.282 937.904 826.706ZM940.368 822.274C939.771 822.274 939.291 822.52 938.928 823.01C938.565 823.501 938.384 824.114 938.384 824.85C938.384 825.597 938.571 826.216 938.944 826.706C939.317 827.197 939.792 827.442 940.368 827.442C940.965 827.442 941.451 827.192 941.824 826.69C942.197 826.189 942.384 825.576 942.384 824.85C942.384 824.125 942.197 823.512 941.824 823.01C941.461 822.52 940.976 822.274 940.368 822.274ZM933.472 822.658C933.035 823.256 932.816 823.986 932.816 824.85C932.816 825.714 933.035 826.445 933.472 827.042C933.92 827.64 934.469 827.938 935.12 827.938C935.792 827.938 936.336 827.645 936.752 827.058C937.168 826.461 937.376 825.725 937.376 824.85C937.376 823.976 937.168 823.245 936.752 822.658C936.336 822.072 935.792 821.778 935.12 821.778C934.469 821.778 933.92 822.072 933.472 822.658ZM937.6 830.763C939.243 830.763 940.613 831.184 941.712 832.027C942.832 832.88 943.392 833.989 943.392 835.355C943.392 836.709 942.837 837.813 941.728 838.667C940.629 839.509 939.253 839.931 937.6 839.931C935.947 839.931 934.571 839.509 933.472 838.667C932.363 837.813 931.808 836.709 931.808 835.355C931.808 833.989 932.363 832.88 933.472 832.027C934.571 831.184 935.947 830.763 937.6 830.763ZM937.6 838.763C938.933 838.763 940.048 838.443 940.944 837.803C941.84 837.163 942.288 836.347 942.288 835.355C942.288 834.363 941.84 833.547 940.944 832.907C940.048 832.267 938.933 831.947 937.6 831.947C936.267 831.947 935.147 832.261 934.24 832.891C933.355 833.531 932.912 834.352 932.912 835.355C932.912 836.357 933.355 837.173 934.24 837.803C935.136 838.443 936.256 838.763 937.6 838.763ZM917.6 822.942C919.243 822.942 920.613 823.363 921.712 824.206C922.832 825.059 923.392 826.169 923.392 827.534C923.392 828.889 922.837 829.993 921.728 830.846C920.629 831.689 919.253 832.11 917.6 832.11C915.947 832.11 914.571 831.689 913.472 830.846C912.363 829.993 911.808 828.889 911.808 827.534C911.808 826.169 912.363 825.059 913.472 824.206C914.571 823.363 915.947 822.942 917.6 822.942ZM917.6 830.942C918.933 830.942 920.048 830.622 920.944 829.982C921.84 829.342 922.288 828.526 922.288 827.534C922.288 826.542 921.84 825.726 920.944 825.086C920.048 824.446 918.933 824.126 917.6 824.126C916.267 824.126 915.147 824.441 914.24 825.07C913.355 825.71 912.912 826.531 912.912 827.534C912.912 828.537 913.355 829.353 914.24 829.982C915.136 830.622 916.256 830.942 917.6 830.942Z" fill="white"/>
<path d="M926.591 771.717L926.493 770.553L936.378 769.721L934.732 767.339L935.864 767.244L937.664 769.741L937.751 770.778L926.591 771.717ZM926.952 776.007L926.847 774.763L937.369 779.016L936.863 773.005L937.931 772.915L938.551 780.281L937.674 780.355L926.952 776.007ZM933.078 782.027C934.715 781.889 936.116 782.194 937.282 782.941C938.469 783.698 939.12 784.756 939.235 786.117C939.348 787.467 938.888 788.613 937.854 789.557C936.83 790.489 935.494 791.024 933.847 791.162C932.199 791.301 930.793 790.997 929.627 790.249C928.45 789.492 927.805 788.438 927.691 787.088C927.577 785.728 928.037 784.576 929.071 783.632C930.095 782.701 931.43 782.165 933.078 782.027ZM933.749 789.998C935.077 789.887 936.161 789.474 937.001 788.761C937.84 788.049 938.218 787.198 938.135 786.209C938.051 785.221 937.537 784.445 936.59 783.883C935.643 783.32 934.506 783.095 933.177 783.206C931.849 783.318 930.759 783.726 929.908 784.429C929.08 785.141 928.707 785.996 928.792 786.996C928.876 787.995 929.385 788.771 930.32 789.324C931.267 789.886 932.41 790.111 933.749 789.998ZM907.01 777.54L906.912 776.376L916.797 775.544L915.152 773.162L916.284 773.066L918.083 775.564L918.171 776.601L907.01 777.54ZM912.8 779.558C914.436 779.42 915.838 779.725 917.003 780.473C918.191 781.229 918.842 782.288 918.956 783.648C919.07 784.998 918.61 786.145 917.576 787.088C916.552 788.02 915.216 788.555 913.568 788.694C911.921 788.832 910.514 788.528 909.349 787.78C908.172 787.023 907.527 785.969 907.413 784.62C907.299 783.259 907.758 782.107 908.792 781.164C909.816 780.232 911.152 779.697 912.8 779.558ZM913.47 787.53C914.799 787.418 915.883 787.006 916.722 786.293C917.561 785.58 917.939 784.729 917.856 783.741C917.773 782.752 917.258 781.977 916.312 781.414C915.365 780.851 914.227 780.626 912.899 780.738C911.57 780.85 910.481 781.257 909.63 781.96C908.801 782.672 908.429 783.528 908.513 784.527C908.597 785.526 909.107 786.302 910.042 786.855C910.988 787.418 912.131 787.643 913.47 787.53Z" fill="white"/>
<path d="M909.689 723.485L909.297 722.384L918.643 719.058L916.444 717.175L917.514 716.794L919.892 718.75L920.241 719.73L909.689 723.485ZM911.788 729.956C911.348 728.72 911.434 727.592 912.044 726.571C912.674 725.542 913.763 724.753 915.311 724.202C916.988 723.571 918.55 723.474 919.996 723.91C921.452 724.343 922.424 725.26 922.911 726.66C923.222 727.535 923.271 728.355 923.057 729.122L921.986 729.503C922.203 728.679 922.175 727.885 921.903 727.121C921.62 726.327 921.155 725.734 920.506 725.342C919.857 724.951 919.163 724.75 918.424 724.742C917.688 724.743 916.92 724.875 916.119 725.137C916.702 725.247 917.228 725.518 917.699 725.951C918.174 726.393 918.536 726.966 918.787 727.669C919.13 728.634 919.099 729.551 918.695 730.419C918.318 731.301 917.632 731.918 916.637 732.272C915.602 732.641 914.625 732.598 913.705 732.144C912.792 731.711 912.153 730.981 911.788 729.956ZM912.807 729.526C913.061 730.239 913.512 730.758 914.159 731.083C914.817 731.403 915.512 731.433 916.246 731.172C916.969 730.915 917.46 730.463 917.717 729.817C917.973 729.17 917.971 728.48 917.71 727.747C917.488 727.124 917.089 726.621 916.511 726.238C915.946 725.861 915.332 725.678 914.668 725.688C913.785 726.104 913.179 726.642 912.848 727.303C912.531 727.971 912.517 728.712 912.807 729.526ZM919.131 733.315C920.679 732.764 922.111 732.701 923.429 733.127C924.77 733.555 925.67 734.413 926.128 735.699C926.582 736.975 926.429 738.201 925.67 739.377C924.918 740.539 923.763 741.398 922.205 741.952C920.648 742.506 919.21 742.571 917.892 742.145C916.561 741.713 915.668 740.859 915.214 739.583C914.756 738.297 914.907 737.065 915.666 735.89C916.419 734.727 917.574 733.869 919.131 733.315ZM921.814 740.852C923.07 740.405 924.013 739.729 924.642 738.826C925.272 737.923 925.42 737.004 925.088 736.069C924.755 735.134 924.059 734.516 923.001 734.213C921.942 733.911 920.784 733.983 919.528 734.43C918.272 734.877 917.322 735.549 916.679 736.446C916.06 737.346 915.918 738.268 916.254 739.213C916.59 740.157 917.281 740.778 918.326 741.074C919.385 741.376 920.547 741.302 921.814 740.852ZM893.348 737.219L890.789 730.028L891.618 729.733L896.276 732.084C897.298 732.603 898.091 732.938 898.654 733.088C899.241 733.242 899.826 733.215 900.409 733.007C901.032 732.786 901.455 732.386 901.68 731.808C901.914 731.226 901.905 730.579 901.651 729.865C901.254 728.75 900.42 727.903 899.15 727.324L900.401 726.879C901.524 727.487 902.299 728.394 902.728 729.6C903.075 730.575 903.087 731.482 902.763 732.322C902.433 733.176 901.825 733.76 900.941 734.075C900.238 734.325 899.532 734.378 898.824 734.234C898.126 734.086 897.223 733.728 896.115 733.16L892.378 731.297L894.358 736.859L893.348 737.219ZM899.166 736.866C900.714 736.316 902.147 736.253 903.464 736.679C904.806 737.107 905.705 737.964 906.163 739.251C906.617 740.527 906.465 741.753 905.706 742.929C904.953 744.091 903.798 744.949 902.24 745.504C900.683 746.058 899.245 746.122 897.928 745.697C896.596 745.265 895.704 744.411 895.249 743.135C894.792 741.848 894.942 740.617 895.701 739.441C896.454 738.279 897.609 737.421 899.166 736.866ZM901.849 744.403C903.105 743.956 904.048 743.281 904.677 742.378C905.307 741.474 905.455 740.555 905.123 739.621C904.79 738.686 904.094 738.068 903.036 737.765C901.977 737.463 900.82 737.535 899.563 737.982C898.307 738.429 897.358 739.101 896.714 739.998C896.095 740.898 895.953 741.82 896.289 742.764C896.626 743.709 897.316 744.329 898.361 744.625C899.42 744.928 900.583 744.854 901.849 744.403Z" fill="white"/>
<path d="M888.238 682.805L887.739 681.749L896.711 677.516L894.336 675.858L895.364 675.374L897.923 677.085L898.367 678.026L888.238 682.805ZM890.413 687.865C889.894 686.766 889.677 685.73 889.761 684.759L890.832 684.253C890.713 685.277 890.902 686.314 891.398 687.365C891.803 688.224 892.359 688.828 893.067 689.178C893.775 689.529 894.476 689.54 895.171 689.212C895.856 688.889 896.285 688.362 896.459 687.631C896.647 686.905 896.537 686.108 896.127 685.24C895.736 684.41 895.213 683.666 894.56 683.007L899.91 681.297L902.272 686.303L901.303 686.761L899.323 682.564L896.209 683.538C896.553 683.942 896.868 684.448 897.155 685.056C897.656 686.117 897.768 687.143 897.493 688.134C897.236 689.116 896.631 689.832 895.676 690.283C894.673 690.756 893.682 690.757 892.705 690.287C891.714 689.811 890.95 689.004 890.413 687.865ZM898.305 691.018C899.791 690.317 901.21 690.113 902.563 690.406C903.94 690.7 904.92 691.465 905.503 692.699C906.081 693.924 906.05 695.16 905.411 696.405C904.777 697.636 903.712 698.604 902.217 699.309C900.722 700.015 899.298 700.221 897.945 699.928C896.577 699.629 895.604 698.868 895.026 697.643C894.444 696.408 894.472 695.168 895.111 693.923C895.745 692.692 896.81 691.724 898.305 691.018ZM901.719 698.253C902.925 697.684 903.796 696.919 904.333 695.958C904.871 694.997 904.928 694.068 904.504 693.17C904.081 692.273 903.328 691.727 902.244 691.53C901.161 691.334 900.016 691.52 898.81 692.089C897.604 692.658 896.726 693.42 896.174 694.376C895.647 695.333 895.597 696.265 896.025 697.171C896.453 698.078 897.201 698.627 898.27 698.819C899.354 699.015 900.503 698.827 901.719 698.253ZM871.139 693.885C870.579 692.698 870.36 691.598 870.484 690.585L871.598 690.059C871.416 691.147 871.586 692.246 872.11 693.356C872.469 694.118 872.996 694.683 873.689 695.052C874.391 695.416 875.109 695.426 875.842 695.08C876.537 694.752 876.973 694.239 877.151 693.542C877.344 692.85 877.242 692.084 876.846 691.245C876.655 690.84 876.429 690.486 876.169 690.184L876.907 689.836L881.435 691.521L879.277 686.949L880.246 686.491L883.087 692.511L882.291 692.886L877.898 691.262C878.297 692.158 878.369 693.086 878.113 694.044C877.862 695.011 877.274 695.714 876.348 696.15C875.344 696.624 874.354 696.637 873.376 696.19C872.399 695.743 871.653 694.975 871.139 693.885ZM878.925 696.815C880.411 696.114 881.83 695.91 883.184 696.203C884.561 696.497 885.541 697.261 886.123 698.496C886.701 699.721 886.671 700.956 886.032 702.201C885.398 703.432 884.333 704.4 882.838 705.106C881.342 705.811 879.918 706.018 878.565 705.724C877.198 705.426 876.225 704.664 875.647 703.439C875.064 702.204 875.092 700.964 875.732 699.719C876.366 698.488 877.43 697.52 878.925 696.815ZM882.339 704.05C883.545 703.481 884.417 702.716 884.954 701.754C885.491 700.793 885.548 699.864 885.125 698.967C884.701 698.07 883.948 697.523 882.865 697.327C881.781 697.13 880.637 697.316 879.431 697.885C878.225 698.454 877.346 699.217 876.795 700.173C876.267 701.129 876.217 702.061 876.645 702.968C877.073 703.875 877.822 704.424 878.891 704.615C879.974 704.812 881.124 704.623 882.339 704.05Z" fill="white"/>
<path d="M856.339 643.245L855.611 642.332L863.366 636.146L860.673 635.08L861.561 634.372L864.446 635.448L865.095 636.261L856.339 643.245ZM862.057 650.413L861.338 649.512L863.752 647.586L860.001 642.883L860.739 642.295L870.104 642.54L870.812 643.428L865.309 647.818L866.466 649.269L865.628 649.938L864.471 648.487L862.057 650.413ZM868.868 643.506L861.697 643.291L864.59 646.918L868.868 643.506ZM868.388 649.37C869.672 648.345 871.007 647.82 872.391 647.794C873.799 647.762 874.928 648.28 875.78 649.347C876.624 650.406 876.879 651.615 876.544 652.974C876.211 654.318 875.398 655.506 874.106 656.537C872.813 657.568 871.475 658.096 870.09 658.123C868.691 658.147 867.569 657.63 866.724 656.571C865.873 655.504 865.614 654.291 865.95 652.932C866.283 651.588 867.096 650.401 868.388 649.37ZM873.377 655.624C874.419 654.792 875.091 653.847 875.393 652.788C875.694 651.729 875.535 650.811 874.917 650.036C874.298 649.26 873.439 648.902 872.339 648.96C871.24 649.019 870.169 649.464 869.127 650.295C868.084 651.127 867.405 652.071 867.089 653.129C866.796 654.181 866.962 655.099 867.587 655.883C868.212 656.667 869.067 657.029 870.152 656.968C871.251 656.91 872.326 656.462 873.377 655.624ZM844.661 660.677L843.942 659.776L846.356 657.851L842.605 653.148L843.343 652.559L852.708 652.804L853.416 653.693L847.913 658.083L849.07 659.534L848.232 660.202L847.075 658.751L844.661 660.677ZM851.472 653.77L844.301 653.555L847.194 657.182L851.472 653.77ZM850.992 659.634C852.276 658.61 853.611 658.084 854.995 658.058C856.403 658.026 857.532 658.544 858.384 659.612C859.228 660.671 859.483 661.88 859.148 663.239C858.815 664.582 858.002 665.77 856.709 666.801C855.417 667.832 854.079 668.361 852.694 668.387C851.295 668.412 850.173 667.895 849.328 666.836C848.477 665.768 848.218 664.555 848.553 663.196C848.887 661.852 849.7 660.665 850.992 659.634ZM855.981 665.888C857.023 665.056 857.695 664.111 857.997 663.052C858.298 661.993 858.139 661.076 857.521 660.3C856.902 659.525 856.043 659.166 854.943 659.225C853.844 659.283 852.773 659.728 851.731 660.559C850.688 661.391 850.009 662.335 849.693 663.393C849.4 664.445 849.566 665.363 850.191 666.147C850.816 666.931 851.671 667.293 852.756 667.233C853.855 667.174 854.93 666.726 855.981 665.888Z" fill="white"/>
<path d="M820.145 608.117L819.238 607.381L825.488 599.677L822.63 599.213L823.346 598.331L826.394 598.764L827.201 599.419L820.145 608.117ZM824.175 611.633C823.156 610.807 822.483 609.91 822.154 608.943L822.931 607.987C823.238 609.047 823.868 609.963 824.821 610.736C825.475 611.267 826.195 611.548 826.979 611.58C827.77 611.604 828.421 611.301 828.932 610.671C829.416 610.075 829.587 609.424 829.445 608.718C829.318 608.011 828.895 607.365 828.174 606.78C827.826 606.498 827.469 606.278 827.104 606.118L827.618 605.485L832.429 605.04L828.502 601.855L829.178 601.022L834.347 605.216L833.792 605.899L829.129 606.34C829.878 606.974 830.344 607.779 830.529 608.753C830.723 609.734 830.497 610.622 829.852 611.417C829.153 612.279 828.266 612.72 827.191 612.741C826.117 612.762 825.111 612.393 824.175 611.633ZM832.462 610.898C833.497 609.622 834.688 608.823 836.035 608.501C837.403 608.169 838.617 608.433 839.678 609.293C840.73 610.146 841.238 611.273 841.201 612.672C841.164 614.056 840.624 615.39 839.582 616.674C838.541 617.958 837.347 618.761 836 619.083C834.638 619.407 833.432 619.143 832.38 618.289C831.319 617.429 830.807 616.299 830.843 614.9C830.881 613.516 831.421 612.182 832.462 610.898ZM838.675 615.938C839.515 614.903 839.969 613.835 840.036 612.736C840.104 611.637 839.752 610.775 838.982 610.15C838.212 609.525 837.296 609.359 836.234 609.652C835.173 609.945 834.222 610.609 833.382 611.644C832.542 612.68 832.081 613.748 831.998 614.848C831.938 615.939 832.296 616.8 833.075 617.432C833.854 618.063 834.766 618.234 835.813 617.943C836.874 617.65 837.829 616.982 838.675 615.938ZM809.348 625.359C808.404 624.593 807.759 623.754 807.414 622.842L808.16 621.922C808.496 622.896 809.116 623.749 810.019 624.481C810.756 625.079 811.52 625.383 812.309 625.392C813.099 625.4 813.736 625.106 814.219 624.51C814.696 623.922 814.855 623.261 814.695 622.527C814.55 621.791 814.105 621.121 813.359 620.516C812.647 619.938 811.854 619.494 810.98 619.183L815.059 615.322L819.358 618.81L818.683 619.643L815.08 616.719L812.695 618.947C813.18 619.162 813.684 619.481 814.206 619.904C815.117 620.644 815.663 621.519 815.845 622.532C816.039 623.528 815.804 624.436 815.139 625.256C814.44 626.117 813.548 626.548 812.464 626.547C811.364 626.548 810.326 626.152 809.348 625.359ZM817.827 624.779C818.862 623.503 820.052 622.704 821.399 622.382C822.767 622.049 823.982 622.313 825.042 623.174C826.094 624.027 826.602 625.153 826.566 626.552C826.528 627.936 825.988 629.271 824.947 630.555C823.905 631.838 822.711 632.642 821.364 632.964C820.003 633.288 818.796 633.023 817.744 632.17C816.684 631.31 816.172 630.18 816.208 628.781C816.246 627.397 816.785 626.063 817.827 624.779ZM824.04 629.819C824.88 628.783 825.333 627.716 825.401 626.617C825.468 625.518 825.117 624.656 824.346 624.031C823.576 623.406 822.66 623.24 821.599 623.532C820.537 623.825 819.586 624.489 818.746 625.525C817.906 626.56 817.445 627.628 817.363 628.729C817.302 629.819 817.661 630.681 818.44 631.312C819.218 631.944 820.131 632.114 821.177 631.823C822.239 631.531 823.193 630.862 824.04 629.819Z" fill="white"/>
<path d="M779.405 580.42L778.421 579.79L783.773 571.438L780.881 571.295L781.494 570.338L784.572 570.429L785.447 570.99L779.405 580.42ZM787.623 585.686L781.197 581.569L781.672 580.828L786.794 579.834C787.92 579.618 788.752 579.397 789.289 579.172C789.847 578.934 790.293 578.554 790.627 578.033C790.983 577.476 791.074 576.901 790.897 576.306C790.726 575.703 790.322 575.197 789.685 574.788C788.688 574.149 787.51 573.99 786.152 574.311L786.868 573.193C788.128 572.986 789.297 573.228 790.374 573.919C791.246 574.477 791.81 575.187 792.069 576.05C792.33 576.927 792.208 577.76 791.701 578.551C791.298 579.179 790.773 579.654 790.125 579.973C789.483 580.284 788.549 580.553 787.326 580.783L783.231 581.598L788.202 584.784L787.623 585.686ZM792.008 581.845C792.894 580.461 793.988 579.535 795.291 579.064C796.613 578.582 797.849 578.709 798.999 579.445C800.14 580.176 800.77 581.239 800.89 582.633C801.007 584.013 800.619 585.399 799.727 586.791C798.835 588.183 797.738 589.114 796.436 589.585C795.119 590.058 793.89 589.93 792.749 589.199C791.6 588.462 790.965 587.397 790.845 586.002C790.728 584.623 791.116 583.237 792.008 581.845ZM798.744 586.161C799.463 585.038 799.795 583.927 799.739 582.827C799.684 581.727 799.239 580.91 798.403 580.375C797.568 579.84 796.639 579.777 795.617 580.186C794.595 580.595 793.724 581.361 793.005 582.483C792.285 583.606 791.946 584.719 791.987 585.822C792.048 586.912 792.501 587.728 793.345 588.269C794.189 588.81 795.115 588.878 796.123 588.472C797.145 588.063 798.019 587.292 798.744 586.161ZM771.419 599.284C770.314 598.577 769.69 597.632 769.547 596.451C769.416 595.252 769.794 593.961 770.68 592.578C771.62 591.052 772.795 590.019 774.205 589.478C775.622 588.929 776.951 589.059 778.194 589.867C778.975 590.368 779.516 590.987 779.816 591.724L779.203 592.681C778.87 591.897 778.361 591.286 777.679 590.849C776.969 590.394 776.238 590.211 775.485 590.298C774.732 590.386 774.061 590.653 773.471 591.098C772.891 591.55 772.364 592.124 771.892 592.822C772.419 592.552 773.002 592.444 773.639 592.498C774.285 592.557 774.922 592.788 775.551 593.191C776.413 593.743 776.95 594.487 777.163 595.421C777.404 596.348 777.24 597.257 776.671 598.146C776.078 599.071 775.279 599.636 774.274 599.841C773.286 600.057 772.335 599.871 771.419 599.284ZM771.96 598.32C772.598 598.729 773.272 598.863 773.983 598.723C774.699 598.574 775.267 598.171 775.687 597.516C776.102 596.869 776.212 596.212 776.02 595.544C775.827 594.875 775.403 594.331 774.747 593.911C774.191 593.554 773.566 593.402 772.875 593.453C772.198 593.5 771.6 593.732 771.081 594.146C770.638 595.016 770.489 595.813 770.632 596.538C770.79 597.26 771.233 597.854 771.96 598.32ZM779.28 597.443C780.167 596.06 781.261 595.133 782.563 594.663C783.886 594.18 785.122 594.307 786.272 595.044C787.412 595.774 788.042 596.837 788.162 598.231C788.279 599.611 787.892 600.997 787 602.389C786.108 603.781 785.011 604.712 783.708 605.183C782.391 605.656 781.163 605.528 780.022 604.797C778.872 604.06 778.238 602.995 778.118 601.6C778.001 600.221 778.388 598.835 779.28 597.443ZM786.016 601.759C786.736 600.636 787.067 599.525 787.012 598.425C786.957 597.326 786.511 596.508 785.676 595.973C784.841 595.438 783.912 595.375 782.89 595.784C781.867 596.193 780.997 596.959 780.277 598.082C779.558 599.204 779.219 600.317 779.259 601.42C779.321 602.511 779.773 603.327 780.618 603.867C781.462 604.408 782.388 604.476 783.395 604.07C784.417 603.661 785.291 602.891 786.016 601.759Z" fill="white"/>
<path d="M733.105 562.086L732.008 561.687L735.404 552.366L732.551 552.859L732.94 551.792L735.963 551.207L736.94 551.563L733.105 562.086ZM738.413 564.02L737.315 563.62L740.712 554.3L737.858 554.793L738.247 553.725L741.27 553.141L742.247 553.497L738.413 564.02ZM742.676 559.613C743.238 558.07 744.103 556.926 745.271 556.183C746.456 555.422 747.69 555.276 748.973 555.743C750.246 556.207 751.093 557.106 751.515 558.441C751.931 559.762 751.856 561.199 751.29 562.752C750.724 564.305 749.857 565.454 748.689 566.198C747.507 566.948 746.28 567.091 745.008 566.627C743.725 566.16 742.872 565.259 742.45 563.925C742.035 562.604 742.11 561.167 742.676 559.613ZM750.192 562.352C750.649 561.099 750.73 559.943 750.435 558.882C750.141 557.821 749.527 557.12 748.595 556.781C747.663 556.441 746.743 556.583 745.835 557.205C744.927 557.828 744.245 558.766 743.788 560.019C743.332 561.272 743.244 562.432 743.525 563.499C743.823 564.55 744.443 565.247 745.385 565.59C746.328 565.933 747.246 565.797 748.14 565.181C749.048 564.558 749.732 563.615 750.192 562.352ZM726.394 580.927L725.222 580.5L733.499 572.737L727.832 570.672L728.199 569.665L735.144 572.195L734.843 573.022L726.394 580.927ZM734.43 577.895C734.993 576.352 735.858 575.208 737.026 574.465C738.211 573.704 739.445 573.558 740.728 574.025C742.001 574.489 742.848 575.388 743.27 576.723C743.686 578.043 743.61 579.481 743.044 581.034C742.478 582.587 741.611 583.736 740.444 584.48C739.262 585.23 738.035 585.373 736.762 584.909C735.479 584.442 734.627 583.541 734.205 582.207C733.789 580.886 733.864 579.449 734.43 577.895ZM741.947 580.634C742.403 579.381 742.484 578.224 742.19 577.164C741.895 576.103 741.282 575.402 740.35 575.063C739.418 574.723 738.498 574.865 737.59 575.487C736.682 576.11 735.999 577.048 735.543 578.301C735.086 579.553 734.999 580.713 735.28 581.781C735.578 582.832 736.198 583.529 737.14 583.872C738.082 584.215 739 584.079 739.895 583.462C740.803 582.84 741.487 581.897 741.947 580.634Z" fill="white"/>
<path d="M682.754 551.259L681.606 551.043L683.437 541.294L680.703 542.245L680.912 541.128L683.799 540.059L684.822 540.251L682.754 551.259ZM686.241 546.216C686.545 544.601 687.212 543.332 688.243 542.408C689.288 541.465 690.482 541.119 691.824 541.371C693.155 541.621 694.138 542.37 694.772 543.618C695.397 544.854 695.557 546.284 695.252 547.909C694.947 549.534 694.278 550.808 693.247 551.732C692.204 552.665 691.016 553.006 689.685 552.756C688.343 552.504 687.355 551.754 686.722 550.506C686.096 549.271 685.936 547.841 686.241 546.216ZM694.104 547.693C694.35 546.383 694.241 545.228 693.778 544.229C693.314 543.23 692.595 542.639 691.62 542.456C690.645 542.273 689.76 542.563 688.966 543.325C688.172 544.088 687.651 545.124 687.405 546.434C687.159 547.745 687.261 548.904 687.712 549.911C688.178 550.899 688.903 551.486 689.889 551.671C690.874 551.856 691.758 551.572 692.54 550.818C693.334 550.056 693.856 549.014 694.104 547.693ZM697.06 548.248C697.364 546.634 698.031 545.365 699.062 544.44C700.107 543.497 701.301 543.152 702.643 543.404C703.974 543.654 704.957 544.403 705.591 545.651C706.216 546.886 706.376 548.316 706.071 549.941C705.765 551.566 705.097 552.841 704.066 553.765C703.023 554.697 701.835 555.039 700.504 554.789C699.162 554.537 698.174 553.787 697.54 552.539C696.915 551.303 696.755 549.873 697.06 548.248ZM704.923 549.725C705.169 548.415 705.06 547.26 704.597 546.262C704.133 545.263 703.414 544.672 702.439 544.489C701.464 544.306 700.579 544.595 699.785 545.358C698.99 546.12 698.47 547.157 698.224 548.467C697.978 549.777 698.08 550.936 698.531 551.944C698.997 552.932 699.722 553.519 700.708 553.704C701.693 553.889 702.577 553.604 703.359 552.85C704.153 552.088 704.675 551.046 704.923 549.725ZM686.162 566.242C686.86 566.568 687.373 567.017 687.7 567.589C688.026 568.16 688.125 568.792 687.995 569.484C687.812 570.459 687.268 571.16 686.363 571.586C685.458 572.013 684.407 572.115 683.212 571.89C682.017 571.666 681.076 571.19 680.387 570.464C679.699 569.738 679.446 568.887 679.629 567.912C679.759 567.22 680.08 566.667 680.592 566.253C681.114 565.841 681.76 565.61 682.53 565.559C682.007 565.222 681.623 564.808 681.379 564.317C681.137 563.816 681.07 563.277 681.178 562.7C681.338 561.851 681.814 561.224 682.606 560.82C683.398 560.415 684.313 560.31 685.351 560.505C686.4 560.702 687.219 561.133 687.811 561.798C688.402 562.462 688.618 563.219 688.459 564.068C688.35 564.645 688.092 565.123 687.685 565.502C687.279 565.871 686.771 566.117 686.162 566.242ZM682.261 563.002C682.151 563.589 682.303 564.106 682.719 564.553C683.134 565 683.703 565.291 684.427 565.427C685.16 565.565 685.803 565.496 686.354 565.219C686.905 564.943 687.234 564.522 687.34 563.956C687.451 563.369 687.294 562.845 686.87 562.386C686.446 561.926 685.878 561.63 685.165 561.496C684.452 561.362 683.815 561.432 683.253 561.707C682.704 561.972 682.373 562.404 682.261 563.002ZM681.365 569.85C681.872 570.39 682.549 570.74 683.398 570.899C684.248 571.059 685.006 570.979 685.674 570.659C686.344 570.329 686.739 569.845 686.859 569.205C686.983 568.545 686.795 567.956 686.295 567.439C685.785 566.92 685.1 566.579 684.24 566.418C683.381 566.256 682.624 566.326 681.971 566.626C681.318 566.927 680.929 567.407 680.805 568.068C680.685 568.707 680.871 569.301 681.365 569.85ZM690.093 567.289C690.396 565.675 691.063 564.406 692.094 563.481C693.14 562.538 694.333 562.193 695.675 562.445C697.006 562.695 697.989 563.444 698.623 564.692C699.248 565.927 699.408 567.357 699.103 568.982C698.798 570.607 698.13 571.881 697.099 572.806C696.055 573.738 694.868 574.08 693.536 573.83C692.194 573.577 691.207 572.828 690.573 571.58C689.947 570.344 689.787 568.914 690.093 567.289ZM697.955 568.766C698.201 567.456 698.093 566.301 697.629 565.303C697.165 564.304 696.446 563.713 695.471 563.53C694.496 563.347 693.612 563.636 692.817 564.399C692.023 565.161 691.502 566.197 691.256 567.508C691.01 568.818 691.113 569.977 691.564 570.984C692.029 571.973 692.755 572.559 693.74 572.745C694.726 572.93 695.609 572.645 696.391 571.891C697.186 571.129 697.707 570.087 697.955 568.766Z" fill="white"/>
<path d="M1029.16 925.5C1029.16 927.553 1028.63 929.267 1027.58 930.64C1026.51 932.04 1025.13 932.74 1023.42 932.74C1021.73 932.74 1020.35 932.047 1019.28 930.66C1018.23 929.287 1017.7 927.567 1017.7 925.5C1017.7 923.433 1018.23 921.713 1019.28 920.34C1020.35 918.953 1021.73 918.26 1023.42 918.26C1025.13 918.26 1026.51 918.953 1027.58 920.34C1028.63 921.713 1029.16 923.433 1029.16 925.5ZM1019.16 925.5C1019.16 927.167 1019.56 928.56 1020.36 929.68C1021.16 930.8 1022.18 931.36 1023.42 931.36C1024.66 931.36 1025.68 930.8 1026.48 929.68C1027.28 928.56 1027.68 927.167 1027.68 925.5C1027.68 923.833 1027.29 922.433 1026.5 921.3C1025.7 920.193 1024.67 919.64 1023.42 919.64C1022.17 919.64 1021.15 920.193 1020.36 921.3C1019.56 922.42 1019.16 923.82 1019.16 925.5Z" fill="white"/>
<path d="M945.22 918.5H946.68V930.9L949.82 929.1V930.52L946.52 932.5H945.22V918.5Z" fill="white"/>
<path d="M865.08 918.5H874.62V919.6L869.9 924.1C868.86 925.087 868.133 925.88 867.72 926.48C867.293 927.107 867.08 927.807 867.08 928.58C867.08 929.407 867.373 930.073 867.96 930.58C868.547 931.1 869.313 931.36 870.26 931.36C871.74 931.36 873.087 930.733 874.3 929.48V931.14C873.113 932.207 871.72 932.74 870.12 932.74C868.827 932.74 867.753 932.373 866.9 931.64C866.033 930.893 865.6 929.933 865.6 928.76C865.6 927.827 865.833 926.973 866.3 926.2C866.767 925.44 867.567 924.527 868.7 923.46L872.46 919.84H865.08V918.5Z" fill="white"/>
<path d="M794.6 918.26C796.24 918.26 797.6 918.6 798.68 919.28V920.82C797.547 920.033 796.213 919.64 794.68 919.64C793.627 919.64 792.707 919.933 791.92 920.52C791.133 921.12 790.74 921.927 790.74 922.94C790.74 923.9 791.087 924.667 791.78 925.24C792.46 925.827 793.38 926.12 794.54 926.12C795.1 926.12 795.62 926.053 796.1 925.92V926.94L791.78 931.16H798.1V932.5H789.78V931.4L793.96 927.3C792.733 927.273 791.647 926.86 790.7 926.06C789.74 925.26 789.26 924.22 789.26 922.94C789.26 921.553 789.773 920.427 790.8 919.56C791.827 918.693 793.093 918.26 794.6 918.26Z" fill="white"/>
<path d="M713.82 918.5H715.26V922.36H722.78V923.54L715.24 932.5H713.82V923.7H711.5V922.36H713.82V918.5ZM715.26 930.54L721.06 923.7H715.26V930.54Z" fill="white"/>
<path d="M640.4 918.26C641.92 918.26 643.207 918.567 644.26 919.18V920.66C643.167 919.98 641.893 919.64 640.44 919.64C639.253 919.64 638.273 919.947 637.5 920.56C636.727 921.173 636.34 921.96 636.34 922.92C636.34 923.867 636.707 924.633 637.44 925.22C638.16 925.82 639.12 926.12 640.32 926.12C641.467 926.12 642.587 925.927 643.68 925.54L642.76 932.5H635.84V931.16H641.64L642.2 927.12C641.56 927.293 640.82 927.38 639.98 927.38C638.513 927.38 637.293 926.96 636.32 926.12C635.347 925.307 634.86 924.24 634.86 922.92C634.86 921.533 635.387 920.413 636.44 919.56C637.507 918.693 638.827 918.26 640.4 918.26Z" fill="white"/>
<path d="M563.78 918.26C565.42 918.26 566.713 918.833 567.66 919.98C568.607 921.153 569.08 922.767 569.08 924.82C569.12 927.06 568.58 928.94 567.46 930.46C566.34 931.993 564.853 932.753 563 932.74C561.84 932.74 560.853 932.453 560.04 931.88V930.46C560.92 931.06 561.867 931.36 562.88 931.36C563.933 931.36 564.827 931.06 565.56 930.46C566.293 929.86 566.82 929.127 567.14 928.26C567.447 927.393 567.613 926.433 567.64 925.38C567.267 926.02 566.727 926.527 566.02 926.9C565.3 927.273 564.473 927.46 563.54 927.46C562.26 927.46 561.193 927.04 560.34 926.2C559.46 925.387 559.02 924.32 559.02 923C559.02 921.627 559.48 920.493 560.4 919.6C561.293 918.707 562.42 918.26 563.78 918.26ZM563.86 919.64C562.913 919.64 562.113 919.953 561.46 920.58C560.807 921.22 560.48 922.027 560.48 923C560.48 923.96 560.807 924.727 561.46 925.3C562.113 925.873 562.927 926.16 563.9 926.16C564.727 926.16 565.487 925.9 566.18 925.38C566.86 924.873 567.333 924.227 567.6 923.44C567.48 922.227 567.1 921.287 566.46 920.62C565.807 919.967 564.94 919.64 563.86 919.64Z" fill="white"/>
<path d="M489.9 918.5H491.46L485.06 931.16H492.6V932.5H483.36V931.4L489.9 918.5Z" fill="white"/>
<path d="M408.74 925.88C407.807 925.64 407.073 925.207 406.54 924.58C406.007 923.953 405.74 923.2 405.74 922.32C405.74 921.08 406.247 920.093 407.26 919.36C408.273 918.627 409.54 918.26 411.06 918.26C412.58 918.26 413.847 918.627 414.86 919.36C415.873 920.093 416.38 921.08 416.38 922.32C416.38 923.2 416.113 923.953 415.58 924.58C415.033 925.207 414.293 925.64 413.36 925.88C414.08 926.173 414.647 926.593 415.06 927.14C415.473 927.7 415.68 928.347 415.68 929.08C415.68 930.16 415.24 931.04 414.36 931.72C413.48 932.4 412.38 932.74 411.06 932.74C409.727 932.74 408.62 932.4 407.74 931.72C406.86 931.04 406.42 930.16 406.42 929.08C406.42 928.347 406.627 927.7 407.04 927.14C407.453 926.593 408.02 926.173 408.74 925.88ZM414.28 928.96C414.28 928.213 413.973 927.613 413.36 927.16C412.747 926.707 411.98 926.48 411.06 926.48C410.127 926.48 409.353 926.713 408.74 927.18C408.127 927.647 407.82 928.24 407.82 928.96C407.82 929.707 408.133 930.313 408.76 930.78C409.387 931.247 410.153 931.48 411.06 931.48C411.967 931.48 412.733 931.247 413.36 930.78C413.973 930.327 414.28 929.72 414.28 928.96ZM413.8 920.34C413.053 919.793 412.14 919.52 411.06 919.52C409.98 919.52 409.067 919.793 408.32 920.34C407.573 920.9 407.2 921.587 407.2 922.4C407.2 923.24 407.567 923.92 408.3 924.44C409.047 924.96 409.967 925.22 411.06 925.22C412.153 925.22 413.067 924.96 413.8 924.44C414.533 923.92 414.9 923.24 414.9 922.4C414.9 921.587 414.533 920.9 413.8 920.34Z" fill="white"/>
<path d="M336.32 932.74C334.68 932.74 333.387 932.16 332.44 931C331.493 929.853 331.02 928.247 331.02 926.18C330.98 923.94 331.52 922.053 332.64 920.52C333.76 919 335.247 918.247 337.1 918.26C338.26 918.26 339.247 918.547 340.06 919.12V920.54C339.18 919.94 338.233 919.64 337.22 919.64C336.167 919.64 335.273 919.94 334.54 920.54C333.807 921.14 333.287 921.873 332.98 922.74C332.66 923.607 332.487 924.567 332.46 925.62C332.833 924.98 333.38 924.473 334.1 924.1C334.807 923.727 335.627 923.54 336.56 923.54C337.813 923.54 338.887 923.953 339.78 924.78C340.647 925.62 341.08 926.693 341.08 928C341.08 929.36 340.627 930.493 339.72 931.4C338.813 932.293 337.68 932.74 336.32 932.74ZM336.24 931.36C337.187 931.36 337.993 931.04 338.66 930.4C339.3 929.773 339.62 928.973 339.62 928C339.62 927.04 339.293 926.273 338.64 925.7C337.987 925.127 337.173 924.84 336.2 924.84C335.387 924.84 334.627 925.1 333.92 925.62C333.24 926.127 332.767 926.773 332.5 927.56C332.62 928.773 333.007 929.707 333.66 930.36C334.3 931.027 335.16 931.36 336.24 931.36Z" fill="white"/>
<path d="M264.22 918.5H265.68V930.9L268.82 929.1V930.52L265.52 932.5H264.22V918.5ZM261.499 925.5C261.499 927.553 260.972 929.267 259.919 930.64C258.852 932.04 257.466 932.74 255.759 932.74C254.066 932.74 252.686 932.047 251.619 930.66C250.566 929.287 250.039 927.567 250.039 925.5C250.039 923.433 250.566 921.713 251.619 920.34C252.686 918.953 254.066 918.26 255.759 918.26C257.466 918.26 258.852 918.953 259.919 920.34C260.972 921.713 261.499 923.433 261.499 925.5ZM251.499 925.5C251.499 927.167 251.899 928.56 252.699 929.68C253.499 930.8 254.519 931.36 255.759 931.36C256.999 931.36 258.019 930.8 258.819 929.68C259.619 928.56 260.019 927.167 260.019 925.5C260.019 923.833 259.626 922.433 258.839 921.3C258.039 920.193 257.012 919.64 255.759 919.64C254.506 919.64 253.486 920.193 252.699 921.3C251.899 922.42 251.499 923.82 251.499 925.5Z" fill="white"/>
<defs>
<clipPath id="clip0_553_25562">
<rect width="791" height="50" fill="white" transform="matrix(-1 0 0 -1 1031 967)"/>
</clipPath>
</defs>
</svg>
