<svg width="1280" height="207" viewBox="0 0 1280 207" fill="none" xmlns="http://www.w3.org/2000/svg">
<path d="M1.26172 54H-23.7383V206.5H1291.76V54H8.76172M1.26172 54V76.5M1.26172 54H8.76172M8.76172 54V65.5M16.2617 54V65.5M23.7617 54V65.5M31.2617 54V65.5M39.2617 54V71.5M46.7617 54V65.5M54.2617 54V65.5M61.7617 54V65.5M69.2617 54V65.5M77.7617 76.5V54H85.2617V65.5M92.7617 54V65.5M100.262 54V65.5M107.762 54V65.5M115.762 54V71.5M123.262 54V65.5M130.762 54V65.5M138.262 54V65.5M222.762 54V65.5M154.262 54V76.5M162.262 54V65.5M169.762 54V65.5M177.262 54V65.5M184.762 54V65.5M192.762 54V71.5M200.262 54V65.5M284.262 54V65.5M215.262 54V65.5M231.262 54V76.5M299.262 54V65.5M238.762 54V65.5M246.262 54V65.5M253.762 54V65.5M261.262 54V65.5M269.262 54V71.5M276.762 54V65.5M367.762 54V65.5M307.762 54V76.5M360.262 54V65.5M375.262 54V65.5M314.762 54V65.5M322.262 54V65.5M329.762 54V65.5M337.262 54V65.5M345.262 54V71.5M352.762 54V65.5M383.762 54V76.5M444.762 54V65.5M437.262 54V65.5M452.262 54V65.5M391.762 54V65.5M399.262 54V65.5M406.762 54V65.5M414.262 54V65.5M422.262 54V71.5M429.762 54V65.5M460.762 54V76.5M146 54V65.5M208 54V65.5M292 54V65.5" stroke="white"/>
<path d="M513.762 54V65.5M528.762 54V65.5M468.262 54V65.5M475.762 54V65.5M483.262 54V65.5M490.762 54V65.5M498.762 54V71.5M506.262 54V65.5M521.262 54V65.5M537.262 54V76.5" stroke="white"/>
<path d="M589.762 54V65.5M604.762 54V65.5M544.262 54V65.5M551.762 54V65.5M559.262 54V65.5M566.762 54V65.5M574.762 54V71.5M582.262 54V65.5M597.262 54V65.5M613.262 54V76.5" stroke="white"/>
<path d="M665.762 54V65.5M680.762 54V65.5M620.262 54V65.5M627.762 54V65.5M635.262 54V65.5M642.762 54V65.5M650.762 54V71.5M658.262 54V65.5M673.262 54V65.5M689.262 54V76.5" stroke="white"/>
<path d="M741.762 54V65.5M756.762 54V65.5M696.262 54V65.5M703.762 54V65.5M711.262 54V65.5M718.762 54V65.5M726.762 54V71.5M734.262 54V65.5M749.262 54V65.5M765.262 54V76.5" stroke="white"/>
<path d="M817.762 54V65.5M832.762 54V65.5M772.262 54V65.5M779.762 54V65.5M787.262 54V65.5M794.762 54V65.5M802.762 54V71.5M810.262 54V65.5M825.262 54V65.5M841.262 54V76.5" stroke="white"/>
<path d="M893.762 54V65.5M908.762 54V65.5M848.262 54V65.5M855.762 54V65.5M863.262 54V65.5M870.762 54V65.5M878.762 54V71.5M886.262 54V65.5M901.262 54V65.5M917.262 54V76.5" stroke="white"/>
<path d="M969.762 54V65.5M984.762 54V65.5M924.262 54V65.5M931.762 54V65.5M939.262 54V65.5M946.762 54V65.5M954.762 54V71.5M962.262 54V65.5M977.262 54V65.5M993.262 54V76.5" stroke="white"/>
<path d="M1045.76 54V65.5M1060.76 54V65.5M1000.26 54V65.5M1007.76 54V65.5M1015.26 54V65.5M1022.76 54V65.5M1030.76 54V71.5M1038.26 54V65.5M1053.26 54V65.5M1069.26 54V76.5" stroke="white"/>
<path d="M1121.76 54V65.5M1136.76 54V65.5M1076.26 54V65.5M1083.76 54V65.5M1091.26 54V65.5M1098.76 54V65.5M1106.76 54V71.5M1114.26 54V65.5M1129.26 54V65.5M1145.26 54V76.5" stroke="white"/>
<path d="M1197.76 54V65.5M1212.76 54V65.5M1152.26 54V65.5M1159.76 54V65.5M1167.26 54V65.5M1174.76 54V65.5M1182.76 54V71.5M1190.26 54V65.5M1205.26 54V65.5M1221.26 54V76.5" stroke="white"/>
<path d="M1273.76 54V65.5M1288.76 54V65.5M1228.26 54V65.5M1235.76 54V65.5M1243.26 54V65.5M1250.76 54V65.5M1258.76 54V71.5M1266.26 54V65.5M1281.26 54V65.5M1297.26 54V76.5" stroke="white"/>
<path d="M294 8.5H422.5M294 8.5L287 16M294 8.5L287 1M422.5 8.5L430 1M422.5 8.5L430 16" stroke="white"/>
<path d="M40 8.75758H205M40 8.75758L48.5 16.5M40 8.75758L48.5 1M205 8.75758L195.5 1M205 8.75758L195.5 16.5" stroke="white"/>
</svg>
