<svg width="819" height="493" viewBox="0 0 819 493" fill="none" xmlns="http://www.w3.org/2000/svg">
<path d="M802.474 492.505H818V354.505H774.216C766.245 236.171 682.144 -0.195483 409.5 1.00452C136.856 2.20452 52.5651 237.171 44.5 354.505H1V492.505H797.816M802.474 492.505V472.144M802.474 492.505H797.816M797.816 492.505V482.098M793.158 492.505V482.098M788.5 492.505V482.098M783.842 492.505V482.098M778.873 492.505V476.668M774.216 492.505V482.098M769.558 492.505V482.098M764.9 492.505V482.098M760.242 492.505V482.098M754.963 472.144V492.505H750.305V482.098M745.647 492.505V482.098M740.989 492.505V482.098M736.331 492.505V482.098M731.363 492.505V476.668M726.705 492.505V482.098M722.047 492.505V482.098M717.389 492.505V482.098M664.91 492.505V482.098M707.452 492.505V472.144M702.483 492.505V482.098M697.826 492.505V482.098M693.168 492.505V482.098M688.51 492.505V482.098M683.541 492.505V476.668M678.883 492.505V482.098M626.715 492.505V482.098M669.567 492.505V482.098M659.631 492.505V472.144M617.399 492.505V482.098M654.973 492.505V482.098M650.315 492.505V482.098M645.657 492.505V482.098M640.999 492.505V482.098M636.03 492.505V476.668M631.372 492.505V482.098M574.856 492.505V482.098M612.12 492.505V472.144M579.514 492.505V482.098M570.198 492.505V482.098M607.772 492.505V482.098M603.114 492.505V482.098M598.456 492.505V482.098M593.799 492.505V482.098M588.83 492.505V476.668M584.172 492.505V482.098M564.919 492.505V472.144M527.035 492.505V482.098M531.693 492.505V482.098M522.377 492.505V482.098M559.951 492.505V482.098M555.293 492.505V482.098M550.635 492.505V482.098M545.977 492.505V482.098M541.009 492.505V476.668M536.351 492.505V482.098M517.098 492.505V472.144M712.583 492.505V482.098M674.077 492.505V482.098M621.909 492.505V482.098M409.5 152.005V109.005M409.5 152.005C416.206 151.971 422.704 152.172 429 152.59M409.5 152.005C404.206 152.031 399.041 152.199 394 152.504M408.31 354.505H612.12C612.12 353.844 612.116 353.177 612.108 352.505M408.31 354.505H204.5C204.508 353.844 204.52 353.178 204.535 352.505M408.31 354.505L409.5 385.505M483.242 492.505V482.098M473.926 492.505V482.098M511.5 492.505V482.098M506.842 492.505V482.098M502.184 492.505V482.098M497.526 492.505V482.098M492.558 492.505V476.668M487.9 492.505V482.098M431.384 492.505V482.098M468.647 492.505V472.144M436.042 492.505V482.098M426.726 492.505V482.098M464.3 492.505V482.098M459.642 492.505V482.098M454.984 492.505V482.098M450.326 492.505V482.098M445.357 492.505V476.668M440.7 492.505V482.098M421.447 492.505V472.144M383.562 492.505V482.098M388.22 492.505V482.098M378.904 492.505V482.098M416.478 492.505V482.098M411.82 492.505V482.098M407.162 492.505V482.098M402.505 492.505V482.098M397.536 492.505V476.668M392.878 492.505V482.098M373.625 492.505V472.144M478.436 492.505V482.098M335.658 492.505V482.098M340.316 492.505V482.098M331 492.505V482.098M368.574 492.505V482.098M363.916 492.505V482.098M359.258 492.505V482.098M354.6 492.505V482.098M349.632 492.505V476.668M344.974 492.505V482.098M368 113.005L376.5 154.159M376.5 154.159C382.158 153.422 387.99 152.867 394 152.504M376.5 154.159C370.115 154.99 363.95 156.052 358 157.327M326.5 124.505L341 161.71M341 161.71C346.462 160.052 352.127 158.586 358 157.327M341 161.71C334.919 163.555 329.089 165.638 323.5 167.935M287 142.005L307 175.687M307 175.687C312.25 172.892 317.747 170.3 323.5 167.935M307 175.687C301.558 178.584 296.38 181.699 291.457 185.005M251 166.005L277 195.827M277 195.827C281.556 192.037 286.371 188.419 291.457 185.005M277 195.827C272.219 199.805 267.724 203.973 263.5 208.296M220.5 195.827L251.785 221.505M251.785 221.505C255.435 216.973 259.335 212.559 263.5 208.296M251.785 221.505C247.913 226.313 244.323 231.254 241 236.287M194.5 231.505L231.611 252.005M231.611 252.005C234.472 246.698 237.596 241.444 241 236.287M231.611 252.005C228.935 256.97 226.489 261.981 224.261 267.005M177 270.505L217.524 284.005M217.524 284.005C219.506 278.357 221.745 272.674 224.261 267.005M217.524 284.005C215.575 289.556 213.874 295.072 212.401 300.505M164.5 311.505L208.553 317.005M208.553 317.005C209.606 311.629 210.882 306.111 212.401 300.505M208.553 317.005C207.335 323.221 206.415 329.249 205.761 335.005M160.5 352.505H204.535M204.535 352.505C204.664 347.052 205.059 341.185 205.761 335.005M664.91 352.505H612.108M612.108 352.505C612.047 347.194 611.742 341.497 611.157 335.505M653 332.005L611.157 335.505M611.157 335.505C610.594 329.749 609.773 323.722 608.661 317.505M660.5 308.005L608.661 317.505M608.661 317.505C607.728 312.289 606.59 306.939 605.228 301.505M644.5 290.505L605.228 301.505M605.228 301.505C603.826 295.911 602.187 290.227 600.289 284.505M648.5 267.005L600.289 284.505M600.289 284.505C598.526 279.19 596.54 273.842 594.315 268.505M629.5 252.505L594.315 268.505M594.315 268.505C592.082 263.147 589.607 257.8 586.874 252.505M629.5 228.505L586.874 252.505M586.874 252.505C584.314 247.545 581.527 242.631 578.5 237.798M608.661 216.505L578.5 237.798M578.5 237.798C575.348 232.766 571.935 227.821 568.246 223.005M604 194.005L568.246 223.005M568.246 223.005C564.7 218.375 560.899 213.864 556.829 209.505M581 186.505L556.829 209.505M556.829 209.505C552.819 205.21 548.547 201.064 544 197.099M572.5 164.505L544 197.099M544 197.099C539.595 193.258 534.933 189.588 530 186.119M549 160.505L530 186.119M530 186.119C525.254 182.782 520.257 179.63 515 176.692M537 140.505L515 176.692M515 176.692C509.914 173.85 504.584 171.207 499 168.789M512.5 140.505L499 168.789M499 168.789C493.576 166.44 487.912 164.303 482 162.4M497.5 122.505L482 162.4M482 162.4C476.393 160.596 470.562 159.002 464.5 157.638M473.5 127.505L464.5 157.638M464.5 157.638C458.868 156.371 453.037 155.303 447 154.449M455 112.005L447 154.449M447 154.449C441.192 153.627 435.194 153.003 429 152.59M432 120.505L429 152.59M391 120.505L394 152.504M349.5 128.505L358 157.327M310.5 142.005L323.5 167.935M274.5 162.505L291.457 185.005M243 188.505L263.5 208.296M215.5 219.005L241 236.287M194.5 254.005L224.261 267.005M180.5 292.505L212.401 300.505M172.5 333.005L205.761 335.005" stroke="white"/>
<g clip-path="url(#clip0_553_25605)">
<path d="M280 493V481.5M265 493V481.5M325.5 493V481.5M318 493V481.5M310.5 493V481.5M303 493V481.5M295 493V475.5M287.5 493V481.5M272.5 493V481.5M256.5 493V470.5" stroke="white"/>
<path d="M204 493V481.5M189 493V481.5M249.5 493V481.5M242 493V481.5M234.5 493V481.5M227 493V481.5M219 493V475.5M211.5 493V481.5M196.5 493V481.5M180.5 493V470.5" stroke="white"/>
<path d="M128 493V481.5M113 493V481.5M173.5 493V481.5M166 493V481.5M158.5 493V481.5M151 493V481.5M143 493V475.5M135.5 493V481.5M120.5 493V481.5M104.5 493V470.5" stroke="white"/>
<path d="M52 493V481.5M37 493V481.5M97.5 493V481.5M90 493V481.5M82.5 493V481.5M75 493V481.5M67 493V475.5M59.5 493V481.5M44.5 493V481.5M28.5 493V470.5" stroke="white"/>
<path d="M-24 493V481.5M-39 493V481.5M21.5 493V481.5M14 493V481.5M6.5 493V481.5M-1 493V481.5M-9 493V475.5M-16.5 493V481.5M-31.5 493V481.5M-47.5 493V470.5" stroke="white"/>
</g>
<defs>
<clipPath id="clip0_553_25605">
<rect width="791" height="50" fill="white" transform="matrix(-1 0 0 -1 800 493)"/>
</clipPath>
</defs>
</svg>
