<svg width="1084" height="1242" viewBox="0 0 1084 1242" fill="none" xmlns="http://www.w3.org/2000/svg">
<rect x="472.132" y="94.8974" width="612" height="875.064" transform="rotate(14 472.132 94.8974)" fill="#003CFF" stroke="#003CFF"/>
<g clip-path="url(#clip0_569_500)">
<rect x="36.3354" width="878.259" height="1050.3" transform="rotate(7 36.3354 0)" fill="white"/>
<path d="M845.304 199.072L261.191 127.352M261.191 127.352L109.43 108.718M261.191 127.352L267.357 77.1294L115.597 58.4956M109.43 108.718L110.771 97.8004M109.43 108.718L107.956 120.728M110.771 97.8004L113.05 79.2398M110.771 97.8004L63.6522 138.562M107.956 120.728L61.2392 158.214M107.956 120.728L105.409 141.472M115.597 58.4956L101.404 56.7528M115.597 58.4956L68.4782 99.2571M115.597 58.4956L113.05 79.2398M101.404 56.7528L87.2102 55.0101M101.404 56.7528L70.6231 81.7882M68.4782 99.2571L70.6231 81.7882M68.4782 99.2571L66.1992 117.818M113.05 79.2398L66.1992 117.818M87.2102 55.0101L74.1086 53.4014L72.2318 68.6866M87.2102 55.0101L72.2318 68.6866M72.2318 68.6866L70.6231 81.7882M66.1992 117.818L63.6522 138.562M63.6522 138.562L61.2392 158.214M61.2392 158.214L58.558 180.05M58.558 180.05L105.409 141.472M58.558 180.05L57.7537 186.601L70.8553 188.21M105.409 141.472L102.728 163.308M102.728 163.308L70.8553 188.21M102.728 163.308L100.985 177.502M70.8553 188.21L85.0487 189.953M100.985 177.502L99.2421 191.695L85.0487 189.953M100.985 177.502L85.0487 189.953M907.324 109.16L768.308 1241.36L-100.766 1134.65" stroke="#003CFF"/>
<path d="M119.011 247.319L53.5034 239.276L42.2427 330.987L107.751 339.03L110.531 316.386M119.011 247.319L830.866 334.724L822.385 403.791L110.531 316.386M119.011 247.319L110.531 316.386" stroke="#003CFF"/>
<path d="M77.1342 258.927L93.6021 278.555L72.875 293.616L77.1342 258.927Z" stroke="#003CFF"/>
</g>
<rect x="36.7708" y="0.557208" width="877.259" height="1049.3" transform="rotate(7 36.7708 0.557208)" stroke="#003CFF"/>
<defs>
<clipPath id="clip0_569_500">
<rect x="36.3354" width="878.259" height="1050.3" transform="rotate(7 36.3354 0)" fill="white"/>
</clipPath>
</defs>
</svg>
