<svg width="1200" height="605" viewBox="0 0 1200 605" fill="none" xmlns="http://www.w3.org/2000/svg">
<g clip-path="url(#clip0_553_25484)">
<rect width="1200" height="605" fill="white"/>
<g opacity="0.3">
<path d="M-14 144H1196.92M-14 195H1196.92M-14 247H1196.92M-14 300H1196.92" stroke="#003CFF"/>
<path d="M-14 349H1196.92" stroke="#003CFF"/>
<path d="M-14 402H1196.92" stroke="#003CFF"/>
<path d="M-14 455H1196.92" stroke="#003CFF"/>
<path d="M-14 505H1196.92" stroke="#003CFF"/>
<path d="M-14 555H1196.92" stroke="#003CFF"/>
<path d="M-14 605H1196.92" stroke="#003CFF"/>
<path d="M1113.87 144L695.534 1685" stroke="#003CFF"/>
<path d="M1200 456L865.74 1685" stroke="#003CFF"/>
<path d="M941.615 144L523.277 1685" stroke="#003CFF"/>
<path d="M768.333 144L349.995 1685" stroke="#003CFF"/>
<path d="M595.051 144L176.713 1685" stroke="#003CFF"/>
<path d="M421.769 144L3.43073 1685" stroke="#003CFF"/>
<path d="M245.41 146L6.50677 1017" stroke="#003CFF"/>
<path d="M74.1791 146L6.50677 382" stroke="#003CFF"/>
</g>
<path d="M0 92L1200 91.9999" stroke="#003CFF"/>
</g>
<rect x="0.5" y="0.5" width="1199" height="604" stroke="#003CFF"/>
<defs>
<clipPath id="clip0_553_25484">
<rect width="1200" height="605" fill="white"/>
</clipPath>
</defs>
</svg>
