<svg width="1280" height="1456" viewBox="0 0 1280 1456" fill="none" xmlns="http://www.w3.org/2000/svg">
<rect width="1280" height="1024" fill="#003CFF"/>
<rect opacity="0.6" x="36" y="41" width="1197" height="942" stroke="white" stroke-width="2"/>
<g opacity="0.6">
<g opacity="0.2">
<rect x="87" y="40" width="2" height="944" fill="white"/>
<rect x="36" y="99" width="2" height="1195" transform="rotate(-90 36 99)" fill="white"/>
<rect x="36" y="158" width="2" height="1195" transform="rotate(-90 36 158)" fill="white"/>
<rect x="36" y="217" width="2" height="1195" transform="rotate(-90 36 217)" fill="white"/>
<rect x="36" y="276" width="2" height="1195" transform="rotate(-90 36 276)" fill="white"/>
<rect x="36" y="335" width="2" height="1195" transform="rotate(-90 36 335)" fill="white"/>
<rect x="36" y="394" width="2" height="1195" transform="rotate(-90 36 394)" fill="white"/>
<rect x="36" y="453" width="2" height="1195" transform="rotate(-90 36 453)" fill="white"/>
<rect x="36" y="512" width="2" height="1195" transform="rotate(-90 36 512)" fill="white"/>
<rect x="36" y="571" width="2" height="1195" transform="rotate(-90 36 571)" fill="white"/>
<rect x="36" y="630" width="2" height="1195" transform="rotate(-90 36 630)" fill="white"/>
<rect x="36" y="689" width="2" height="1195" transform="rotate(-90 36 689)" fill="white"/>
<rect x="36" y="748" width="2" height="1195" transform="rotate(-90 36 748)" fill="white"/>
<rect x="36" y="807" width="2" height="1195" transform="rotate(-90 36 807)" fill="white"/>
<rect x="36" y="866" width="2" height="1195" transform="rotate(-90 36 866)" fill="white"/>
<rect x="36" y="925" width="2" height="1195" transform="rotate(-90 36 925)" fill="white"/>
<rect x="134" y="40" width="2" height="944" fill="white"/>
<rect x="182" y="40" width="2" height="944" fill="white"/>
<rect x="229" y="40" width="2" height="944" fill="white"/>
<rect x="277" y="40" width="2" height="944" fill="white"/>
<rect x="324" y="40" width="2" height="944" fill="white"/>
<rect x="372" y="40" width="2" height="944" fill="white"/>
<rect x="419" y="40" width="2" height="944" fill="white"/>
<rect x="467" y="40" width="2" height="944" fill="white"/>
<rect x="514" y="40" width="2" height="944" fill="white"/>
<rect x="562" y="40" width="2" height="944" fill="white"/>
<rect x="609" y="40" width="2" height="944" fill="white"/>
<rect x="657" y="40" width="2" height="944" fill="white"/>
<rect x="704" y="40" width="2" height="944" fill="white"/>
<rect x="752" y="40" width="2" height="944" fill="white"/>
<rect x="799" y="40" width="2" height="944" fill="white"/>
<rect x="847" y="40" width="2" height="944" fill="white"/>
<rect x="894" y="40" width="2" height="944" fill="white"/>
<path d="M942 40H944V984H942V40Z" fill="white"/>
<rect x="989" y="40" width="2" height="944" fill="white"/>
<rect x="1037" y="40" width="2" height="944" fill="white"/>
<rect x="1084" y="40" width="2" height="944" fill="white"/>
<rect x="1132" y="40" width="2" height="944" fill="white"/>
<rect x="1179" y="40" width="2" height="944" fill="white"/>
</g>
<g opacity="0.4">
<path d="M89 97H96V99H89V108H87V99H80V97H87V88H89V97Z" fill="white"/>
<path d="M136 97H143V99H136V108H134V99H127V97H134V88H136V97Z" fill="white"/>
<path d="M184 97H191V99H184V108H182V99H175V97H182V88H184V97Z" fill="white"/>
<path d="M231 97H238V99H231V108H229V99H222V97H229V88H231V97Z" fill="white"/>
<path d="M279 97H286V99H279V108H277V99H270V97H277V88H279V97Z" fill="white"/>
<path d="M326 97H333V99H326V108H324V99H317V97H324V88H326V97Z" fill="white"/>
<path d="M374 97H381V99H374V108H372V99H365V97H372V88H374V97Z" fill="white"/>
<path d="M421 97H428V99H421V108H419V99H412V97H419V88H421V97Z" fill="white"/>
<path d="M469 97H476V99H469V108H467V99H460V97H467V88H469V97Z" fill="white"/>
<path d="M516 97H523V99H516V108H514V99H507V97H514V88H516V97Z" fill="white"/>
<path d="M564 97H571V99H564V108H562V99H555V97H562V88H564V97Z" fill="white"/>
<path d="M611 97H618V99H611V108H609V99H602V97H609V88H611V97Z" fill="white"/>
<path d="M659 97H666V99H659V108H657V99H650V97H657V88H659V97Z" fill="white"/>
<path d="M706 97H713V99H706V108H704V99H697V97H704V88H706V97Z" fill="white"/>
<path d="M754 97H761V99H754V108H752V99H745V97H752V88H754V97Z" fill="white"/>
<path d="M801 97H808V99H801V108H799V99H792V97H799V88H801V97Z" fill="white"/>
<path d="M849 97H856V99H849V108H847V99H840V97H847V88H849V97Z" fill="white"/>
<path d="M896 97H903V99H896V108H894V99H887V97H894V88H896V97Z" fill="white"/>
<path d="M944 97H951V99H944V108H942V99H935V97H942V88H944V97Z" fill="white"/>
<path d="M991 97H998V99H991V108H989V99H982V97H989V88H991V97Z" fill="white"/>
<path d="M1039 97H1046V99H1039V108H1037V99H1030V97H1037V88H1039V97Z" fill="white"/>
<path d="M1086 97H1093V99H1086V108H1084V99H1077V97H1084V88H1086V97Z" fill="white"/>
<path d="M1134 97H1141V99H1134V108H1132V99H1125V97H1132V88H1134V97Z" fill="white"/>
<path d="M1181 97H1188V99H1181V108H1179V99H1172V97H1179V88H1181V97Z" fill="white"/>
<path d="M89 156H96V158H89V167H87V158H80V156H87V147H89V156Z" fill="white"/>
<path d="M136 156H143V158H136V167H134V158H127V156H134V147H136V156Z" fill="white"/>
<path d="M184 156H191V158H184V167H182V158H175V156H182V147H184V156Z" fill="white"/>
<path d="M231 156H238V158H231V167H229V158H222V156H229V147H231V156Z" fill="white"/>
<path d="M279 156H286V158H279V167H277V158H270V156H277V147H279V156Z" fill="white"/>
<path d="M326 156H333V158H326V167H324V158H317V156H324V147H326V156Z" fill="white"/>
<path d="M374 156H381V158H374V167H372V158H365V156H372V147H374V156Z" fill="white"/>
<path d="M421 156H428V158H421V167H419V158H412V156H419V147H421V156Z" fill="white"/>
<path d="M469 156H476V158H469V167H467V158H460V156H467V147H469V156Z" fill="white"/>
<path d="M516 156H523V158H516V167H514V158H507V156H514V147H516V156Z" fill="white"/>
<path d="M564 156H571V158H564V167H562V158H555V156H562V147H564V156Z" fill="white"/>
<path d="M611 156H618V158H611V167H609V158H602V156H609V147H611V156Z" fill="white"/>
<path d="M659 156H666V158H659V167H657V158H650V156H657V147H659V156Z" fill="white"/>
<path d="M706 156H713V158H706V167H704V158H697V156H704V147H706V156Z" fill="white"/>
<path d="M754 156H761V158H754V167H752V158H745V156H752V147H754V156Z" fill="white"/>
<path d="M801 156H808V158H801V167H799V158H792V156H799V147H801V156Z" fill="white"/>
<path d="M849 156H856V158H849V167H847V158H840V156H847V147H849V156Z" fill="white"/>
<path d="M896 156H903V158H896V167H894V158H887V156H894V147H896V156Z" fill="white"/>
<path d="M944 156H951V158H944V167H942V158H935V156H942V147H944V156Z" fill="white"/>
<path d="M991 156H998V158H991V167H989V158H982V156H989V147H991V156Z" fill="white"/>
<path d="M1039 156H1046V158H1039V167H1037V158H1030V156H1037V147H1039V156Z" fill="white"/>
<path d="M1086 156H1093V158H1086V167H1084V158H1077V156H1084V147H1086V156Z" fill="white"/>
<path d="M1134 156H1141V158H1134V167H1132V158H1125V156H1132V147H1134V156Z" fill="white"/>
<path d="M1181 156H1188V158H1181V167H1179V158H1172V156H1179V147H1181V156Z" fill="white"/>
<path d="M89 215H96V217H89V226H87V217H80V215H87V206H89V215Z" fill="white"/>
<path d="M136 215H143V217H136V226H134V217H127V215H134V206H136V215Z" fill="white"/>
<path d="M184 215H191V217H184V226H182V217H175V215H182V206H184V215Z" fill="white"/>
<path d="M231 215H238V217H231V226H229V217H222V215H229V206H231V215Z" fill="white"/>
<path d="M279 215H286V217H279V226H277V217H270V215H277V206H279V215Z" fill="white"/>
<path d="M326 215H333V217H326V226H324V217H317V215H324V206H326V215Z" fill="white"/>
<path d="M374 215H381V217H374V226H372V217H365V215H372V206H374V215Z" fill="white"/>
<path d="M421 215H428V217H421V226H419V217H412V215H419V206H421V215Z" fill="white"/>
<path d="M469 215H476V217H469V226H467V217H460V215H467V206H469V215Z" fill="white"/>
<path d="M516 215H523V217H516V226H514V217H507V215H514V206H516V215Z" fill="white"/>
<path d="M564 215H571V217H564V226H562V217H555V215H562V206H564V215Z" fill="white"/>
<path d="M611 215H618V217H611V226H609V217H602V215H609V206H611V215Z" fill="white"/>
<path d="M659 215H666V217H659V226H657V217H650V215H657V206H659V215Z" fill="white"/>
<path d="M706 215H713V217H706V226H704V217H697V215H704V206H706V215Z" fill="white"/>
<path d="M754 215H761V217H754V226H752V217H745V215H752V206H754V215Z" fill="white"/>
<path d="M801 215H808V217H801V226H799V217H792V215H799V206H801V215Z" fill="white"/>
<path d="M849 215H856V217H849V226H847V217H840V215H847V206H849V215Z" fill="white"/>
<path d="M896 215H903V217H896V226H894V217H887V215H894V206H896V215Z" fill="white"/>
<path d="M944 215H951V217H944V226H942V217H935V215H942V206H944V215Z" fill="white"/>
<path d="M991 215H998V217H991V226H989V217H982V215H989V206H991V215Z" fill="white"/>
<path d="M1039 215H1046V217H1039V226H1037V217H1030V215H1037V206H1039V215Z" fill="white"/>
<path d="M1086 215H1093V217H1086V226H1084V217H1077V215H1084V206H1086V215Z" fill="white"/>
<path d="M1134 215H1141V217H1134V226H1132V217H1125V215H1132V206H1134V215Z" fill="white"/>
<path d="M1181 215H1188V217H1181V226H1179V217H1172V215H1179V206H1181V215Z" fill="white"/>
<path d="M89 274H96V276H89V285H87V276H80V274H87V265H89V274Z" fill="white"/>
<path d="M136 274H143V276H136V285H134V276H127V274H134V265H136V274Z" fill="white"/>
<path d="M184 274H191V276H184V285H182V276H175V274H182V265H184V274Z" fill="white"/>
<path d="M231 274H238V276H231V285H229V276H222V274H229V265H231V274Z" fill="white"/>
<path d="M279 274H286V276H279V285H277V276H270V274H277V265H279V274Z" fill="white"/>
<path d="M326 274H333V276H326V285H324V276H317V274H324V265H326V274Z" fill="white"/>
<path d="M374 274H381V276H374V285H372V276H365V274H372V265H374V274Z" fill="white"/>
<path d="M421 274H428V276H421V285H419V276H412V274H419V265H421V274Z" fill="white"/>
<path d="M469 274H476V276H469V285H467V276H460V274H467V265H469V274Z" fill="white"/>
<path d="M516 274H523V276H516V285H514V276H507V274H514V265H516V274Z" fill="white"/>
<path d="M564 274H571V276H564V285H562V276H555V274H562V265H564V274Z" fill="white"/>
<path d="M611 274H618V276H611V285H609V276H602V274H609V265H611V274Z" fill="white"/>
<path d="M659 274H666V276H659V285H657V276H650V274H657V265H659V274Z" fill="white"/>
<path d="M706 274H713V276H706V285H704V276H697V274H704V265H706V274Z" fill="white"/>
<path d="M754 274H761V276H754V285H752V276H745V274H752V265H754V274Z" fill="white"/>
<path d="M801 274H808V276H801V285H799V276H792V274H799V265H801V274Z" fill="white"/>
<path d="M849 274H856V276H849V285H847V276H840V274H847V265H849V274Z" fill="white"/>
<path d="M896 274H903V276H896V285H894V276H887V274H894V265H896V274Z" fill="white"/>
<path d="M944 274H951V276H944V285H942V276H935V274H942V265H944V274Z" fill="white"/>
<path d="M991 274H998V276H991V285H989V276H982V274H989V265H991V274Z" fill="white"/>
<path d="M1039 274H1046V276H1039V285H1037V276H1030V274H1037V265H1039V274Z" fill="white"/>
<path d="M1086 274H1093V276H1086V285H1084V276H1077V274H1084V265H1086V274Z" fill="white"/>
<path d="M1134 274H1141V276H1134V285H1132V276H1125V274H1132V265H1134V274Z" fill="white"/>
<path d="M1181 274H1188V276H1181V285H1179V276H1172V274H1179V265H1181V274Z" fill="white"/>
<path d="M89 333H96V335H89V344H87V335H80V333H87V324H89V333Z" fill="white"/>
<path d="M136 333H143V335H136V344H134V335H127V333H134V324H136V333Z" fill="white"/>
<path d="M184 333H191V335H184V344H182V335H175V333H182V324H184V333Z" fill="white"/>
<path d="M231 333H238V335H231V344H229V335H222V333H229V324H231V333Z" fill="white"/>
<path d="M279 333H286V335H279V344H277V335H270V333H277V324H279V333Z" fill="white"/>
<path d="M326 333H333V335H326V344H324V335H317V333H324V324H326V333Z" fill="white"/>
<path d="M374 333H381V335H374V344H372V335H365V333H372V324H374V333Z" fill="white"/>
<path d="M421 333H428V335H421V344H419V335H412V333H419V324H421V333Z" fill="white"/>
<path d="M469 333H476V335H469V344H467V335H460V333H467V324H469V333Z" fill="white"/>
<path d="M516 333H523V335H516V344H514V335H507V333H514V324H516V333Z" fill="white"/>
<path d="M564 333H571V335H564V344H562V335H555V333H562V324H564V333Z" fill="white"/>
<path d="M611 333H618V335H611V344H609V335H602V333H609V324H611V333Z" fill="white"/>
<path d="M659 333H666V335H659V344H657V335H650V333H657V324H659V333Z" fill="white"/>
<path d="M706 333H713V335H706V344H704V335H697V333H704V324H706V333Z" fill="white"/>
<path d="M754 333H761V335H754V344H752V335H745V333H752V324H754V333Z" fill="white"/>
<path d="M801 333H808V335H801V344H799V335H792V333H799V324H801V333Z" fill="white"/>
<path d="M849 333H856V335H849V344H847V335H840V333H847V324H849V333Z" fill="white"/>
<path d="M896 333H903V335H896V344H894V335H887V333H894V324H896V333Z" fill="white"/>
<path d="M944 333H951V335H944V344H942V335H935V333H942V324H944V333Z" fill="white"/>
<path d="M991 333H998V335H991V344H989V335H982V333H989V324H991V333Z" fill="white"/>
<path d="M1039 333H1046V335H1039V344H1037V335H1030V333H1037V324H1039V333Z" fill="white"/>
<path d="M1086 333H1093V335H1086V344H1084V335H1077V333H1084V324H1086V333Z" fill="white"/>
<path d="M1134 333H1141V335H1134V344H1132V335H1125V333H1132V324H1134V333Z" fill="white"/>
<path d="M1181 333H1188V335H1181V344H1179V335H1172V333H1179V324H1181V333Z" fill="white"/>
<path d="M89 392H96V394H89V403H87V394H80V392H87V383H89V392Z" fill="white"/>
<path d="M136 392H143V394H136V403H134V394H127V392H134V383H136V392Z" fill="white"/>
<path d="M184 392H191V394H184V403H182V394H175V392H182V383H184V392Z" fill="white"/>
<path d="M231 392H238V394H231V403H229V394H222V392H229V383H231V392Z" fill="white"/>
<path d="M279 392H286V394H279V403H277V394H270V392H277V383H279V392Z" fill="white"/>
<path d="M326 392H333V394H326V403H324V394H317V392H324V383H326V392Z" fill="white"/>
<path d="M374 392H381V394H374V403H372V394H365V392H372V383H374V392Z" fill="white"/>
<path d="M421 392H428V394H421V403H419V394H412V392H419V383H421V392Z" fill="white"/>
<path d="M469 392H476V394H469V403H467V394H460V392H467V383H469V392Z" fill="white"/>
<path d="M516 392H523V394H516V403H514V394H507V392H514V383H516V392Z" fill="white"/>
<path d="M564 392H571V394H564V403H562V394H555V392H562V383H564V392Z" fill="white"/>
<path d="M611 392H618V394H611V403H609V394H602V392H609V383H611V392Z" fill="white"/>
<path d="M659 392H666V394H659V403H657V394H650V392H657V383H659V392Z" fill="white"/>
<path d="M706 392H713V394H706V403H704V394H697V392H704V383H706V392Z" fill="white"/>
<path d="M754 392H761V394H754V403H752V394H745V392H752V383H754V392Z" fill="white"/>
<path d="M801 392H808V394H801V403H799V394H792V392H799V383H801V392Z" fill="white"/>
<path d="M849 392H856V394H849V403H847V394H840V392H847V383H849V392Z" fill="white"/>
<path d="M896 392H903V394H896V403H894V394H887V392H894V383H896V392Z" fill="white"/>
<path d="M944 392H951V394H944V403H942V394H935V392H942V383H944V392Z" fill="white"/>
<path d="M991 392H998V394H991V403H989V394H982V392H989V383H991V392Z" fill="white"/>
<path d="M1039 392H1046V394H1039V403H1037V394H1030V392H1037V383H1039V392Z" fill="white"/>
<path d="M1086 392H1093V394H1086V403H1084V394H1077V392H1084V383H1086V392Z" fill="white"/>
<path d="M1134 392H1141V394H1134V403H1132V394H1125V392H1132V383H1134V392Z" fill="white"/>
<path d="M1181 392H1188V394H1181V403H1179V394H1172V392H1179V383H1181V392Z" fill="white"/>
<path d="M89 451H96V453H89V462H87V453H80V451H87V442H89V451Z" fill="white"/>
<path d="M136 451H143V453H136V462H134V453H127V451H134V442H136V451Z" fill="white"/>
<path d="M184 451H191V453H184V462H182V453H175V451H182V442H184V451Z" fill="white"/>
<path d="M231 451H238V453H231V462H229V453H222V451H229V442H231V451Z" fill="white"/>
<path d="M279 451H286V453H279V462H277V453H270V451H277V442H279V451Z" fill="white"/>
<path d="M326 451H333V453H326V462H324V453H317V451H324V442H326V451Z" fill="white"/>
<path d="M374 451H381V453H374V462H372V453H365V451H372V442H374V451Z" fill="white"/>
<path d="M421 451H428V453H421V462H419V453H412V451H419V442H421V451Z" fill="white"/>
<path d="M469 451H476V453H469V462H467V453H460V451H467V442H469V451Z" fill="white"/>
<path d="M516 451H523V453H516V462H514V453H507V451H514V442H516V451Z" fill="white"/>
<path d="M564 451H571V453H564V462H562V453H555V451H562V442H564V451Z" fill="white"/>
<path d="M611 451H618V453H611V462H609V453H602V451H609V442H611V451Z" fill="white"/>
<path d="M659 451H666V453H659V462H657V453H650V451H657V442H659V451Z" fill="white"/>
<path d="M706 451H713V453H706V462H704V453H697V451H704V442H706V451Z" fill="white"/>
<path d="M754 451H761V453H754V462H752V453H745V451H752V442H754V451Z" fill="white"/>
<path d="M801 451H808V453H801V462H799V453H792V451H799V442H801V451Z" fill="white"/>
<path d="M849 451H856V453H849V462H847V453H840V451H847V442H849V451Z" fill="white"/>
<path d="M896 451H903V453H896V462H894V453H887V451H894V442H896V451Z" fill="white"/>
<path d="M944 451H951V453H944V462H942V453H935V451H942V442H944V451Z" fill="white"/>
<path d="M991 451H998V453H991V462H989V453H982V451H989V442H991V451Z" fill="white"/>
<path d="M1039 451H1046V453H1039V462H1037V453H1030V451H1037V442H1039V451Z" fill="white"/>
<path d="M1086 451H1093V453H1086V462H1084V453H1077V451H1084V442H1086V451Z" fill="white"/>
<path d="M1134 451H1141V453H1134V462H1132V453H1125V451H1132V442H1134V451Z" fill="white"/>
<path d="M1181 451H1188V453H1181V462H1179V453H1172V451H1179V442H1181V451Z" fill="white"/>
<path d="M89 510H96V512H89V521H87V512H80V510H87V501H89V510Z" fill="white"/>
<path d="M136 510H143V512H136V521H134V512H127V510H134V501H136V510Z" fill="white"/>
<path d="M184 510H191V512H184V521H182V512H175V510H182V501H184V510Z" fill="white"/>
<path d="M231 510H238V512H231V521H229V512H222V510H229V501H231V510Z" fill="white"/>
<path d="M279 510H286V512H279V521H277V512H270V510H277V501H279V510Z" fill="white"/>
<path d="M326 510H333V512H326V521H324V512H317V510H324V501H326V510Z" fill="white"/>
<path d="M374 510H381V512H374V521H372V512H365V510H372V501H374V510Z" fill="white"/>
<path d="M421 510H428V512H421V521H419V512H412V510H419V501H421V510Z" fill="white"/>
<path d="M469 510H476V512H469V521H467V512H460V510H467V501H469V510Z" fill="white"/>
<path d="M516 510H523V512H516V521H514V512H507V510H514V501H516V510Z" fill="white"/>
<path d="M564 510H571V512H564V521H562V512H555V510H562V501H564V510Z" fill="white"/>
<path d="M611 510H618V512H611V521H609V512H602V510H609V501H611V510Z" fill="white"/>
<path d="M659 510H666V512H659V521H657V512H650V510H657V501H659V510Z" fill="white"/>
<path d="M706 510H713V512H706V521H704V512H697V510H704V501H706V510Z" fill="white"/>
<path d="M754 510H761V512H754V521H752V512H745V510H752V501H754V510Z" fill="white"/>
<path d="M801 510H808V512H801V521H799V512H792V510H799V501H801V510Z" fill="white"/>
<path d="M849 510H856V512H849V521H847V512H840V510H847V501H849V510Z" fill="white"/>
<path d="M896 510H903V512H896V521H894V512H887V510H894V501H896V510Z" fill="white"/>
<path d="M944 510H951V512H944V521H942V512H935V510H942V501H944V510Z" fill="white"/>
<path d="M991 510H998V512H991V521H989V512H982V510H989V501H991V510Z" fill="white"/>
<path d="M1039 510H1046V512H1039V521H1037V512H1030V510H1037V501H1039V510Z" fill="white"/>
<path d="M1086 510H1093V512H1086V521H1084V512H1077V510H1084V501H1086V510Z" fill="white"/>
<path d="M1134 510H1141V512H1134V521H1132V512H1125V510H1132V501H1134V510Z" fill="white"/>
<path d="M1181 510H1188V512H1181V521H1179V512H1172V510H1179V501H1181V510Z" fill="white"/>
<path d="M89 569H96V571H89V580H87V571H80V569H87V560H89V569Z" fill="white"/>
<path d="M136 569H143V571H136V580H134V571H127V569H134V560H136V569Z" fill="white"/>
<path d="M184 569H191V571H184V580H182V571H175V569H182V560H184V569Z" fill="white"/>
<path d="M231 569H238V571H231V580H229V571H222V569H229V560H231V569Z" fill="white"/>
<path d="M279 569H286V571H279V580H277V571H270V569H277V560H279V569Z" fill="white"/>
<path d="M326 569H333V571H326V580H324V571H317V569H324V560H326V569Z" fill="white"/>
<path d="M374 569H381V571H374V580H372V571H365V569H372V560H374V569Z" fill="white"/>
<path d="M421 569H428V571H421V580H419V571H412V569H419V560H421V569Z" fill="white"/>
<path d="M469 569H476V571H469V580H467V571H460V569H467V560H469V569Z" fill="white"/>
<path d="M516 569H523V571H516V580H514V571H507V569H514V560H516V569Z" fill="white"/>
<path d="M564 569H571V571H564V580H562V571H555V569H562V560H564V569Z" fill="white"/>
<path d="M611 569H618V571H611V580H609V571H602V569H609V560H611V569Z" fill="white"/>
<path d="M659 569H666V571H659V580H657V571H650V569H657V560H659V569Z" fill="white"/>
<path d="M706 569H713V571H706V580H704V571H697V569H704V560H706V569Z" fill="white"/>
<path d="M754 569H761V571H754V580H752V571H745V569H752V560H754V569Z" fill="white"/>
<path d="M801 569H808V571H801V580H799V571H792V569H799V560H801V569Z" fill="white"/>
<path d="M849 569H856V571H849V580H847V571H840V569H847V560H849V569Z" fill="white"/>
<path d="M896 569H903V571H896V580H894V571H887V569H894V560H896V569Z" fill="white"/>
<path d="M944 569H951V571H944V580H942V571H935V569H942V560H944V569Z" fill="white"/>
<path d="M991 569H998V571H991V580H989V571H982V569H989V560H991V569Z" fill="white"/>
<path d="M1039 569H1046V571H1039V580H1037V571H1030V569H1037V560H1039V569Z" fill="white"/>
<path d="M1086 569H1093V571H1086V580H1084V571H1077V569H1084V560H1086V569Z" fill="white"/>
<path d="M1134 569H1141V571H1134V580H1132V571H1125V569H1132V560H1134V569Z" fill="white"/>
<path d="M1181 569H1188V571H1181V580H1179V571H1172V569H1179V560H1181V569Z" fill="white"/>
<path d="M89 628H96V630H89V639H87V630H80V628H87V619H89V628Z" fill="white"/>
<path d="M136 628H143V630H136V639H134V630H127V628H134V619H136V628Z" fill="white"/>
<path d="M184 628H191V630H184V639H182V630H175V628H182V619H184V628Z" fill="white"/>
<path d="M231 628H238V630H231V639H229V630H222V628H229V619H231V628Z" fill="white"/>
<path d="M279 628H286V630H279V639H277V630H270V628H277V619H279V628Z" fill="white"/>
<path d="M326 628H333V630H326V639H324V630H317V628H324V619H326V628Z" fill="white"/>
<path d="M374 628H381V630H374V639H372V630H365V628H372V619H374V628Z" fill="white"/>
<path d="M421 628H428V630H421V639H419V630H412V628H419V619H421V628Z" fill="white"/>
<path d="M469 628H476V630H469V639H467V630H460V628H467V619H469V628Z" fill="white"/>
<path d="M516 628H523V630H516V639H514V630H507V628H514V619H516V628Z" fill="white"/>
<path d="M564 628H571V630H564V639H562V630H555V628H562V619H564V628Z" fill="white"/>
<path d="M611 628H618V630H611V639H609V630H602V628H609V619H611V628Z" fill="white"/>
<path d="M659 628H666V630H659V639H657V630H650V628H657V619H659V628Z" fill="white"/>
<path d="M706 628H713V630H706V639H704V630H697V628H704V619H706V628Z" fill="white"/>
<path d="M754 628H761V630H754V639H752V630H745V628H752V619H754V628Z" fill="white"/>
<path d="M801 628H808V630H801V639H799V630H792V628H799V619H801V628Z" fill="white"/>
<path d="M849 628H856V630H849V639H847V630H840V628H847V619H849V628Z" fill="white"/>
<path d="M896 628H903V630H896V639H894V630H887V628H894V619H896V628Z" fill="white"/>
<path d="M944 628H951V630H944V639H942V630H935V628H942V619H944V628Z" fill="white"/>
<path d="M991 628H998V630H991V639H989V630H982V628H989V619H991V628Z" fill="white"/>
<path d="M1039 628H1046V630H1039V639H1037V630H1030V628H1037V619H1039V628Z" fill="white"/>
<path d="M1086 628H1093V630H1086V639H1084V630H1077V628H1084V619H1086V628Z" fill="white"/>
<path d="M1134 628H1141V630H1134V639H1132V630H1125V628H1132V619H1134V628Z" fill="white"/>
<path d="M1181 628H1188V630H1181V639H1179V630H1172V628H1179V619H1181V628Z" fill="white"/>
<path d="M89 687H96V689H89V698H87V689H80V687H87V678H89V687Z" fill="white"/>
<path d="M136 687H143V689H136V698H134V689H127V687H134V678H136V687Z" fill="white"/>
<path d="M184 687H191V689H184V698H182V689H175V687H182V678H184V687Z" fill="white"/>
<path d="M231 687H238V689H231V698H229V689H222V687H229V678H231V687Z" fill="white"/>
<path d="M279 687H286V689H279V698H277V689H270V687H277V678H279V687Z" fill="white"/>
<path d="M326 687H333V689H326V698H324V689H317V687H324V678H326V687Z" fill="white"/>
<path d="M374 687H381V689H374V698H372V689H365V687H372V678H374V687Z" fill="white"/>
<path d="M421 687H428V689H421V698H419V689H412V687H419V678H421V687Z" fill="white"/>
<path d="M469 687H476V689H469V698H467V689H460V687H467V678H469V687Z" fill="white"/>
<path d="M516 687H523V689H516V698H514V689H507V687H514V678H516V687Z" fill="white"/>
<path d="M564 687H571V689H564V698H562V689H555V687H562V678H564V687Z" fill="white"/>
<path d="M611 687H618V689H611V698H609V689H602V687H609V678H611V687Z" fill="white"/>
<path d="M659 687H666V689H659V698H657V689H650V687H657V678H659V687Z" fill="white"/>
<path d="M706 687H713V689H706V698H704V689H697V687H704V678H706V687Z" fill="white"/>
<path d="M754 687H761V689H754V698H752V689H745V687H752V678H754V687Z" fill="white"/>
<path d="M801 687H808V689H801V698H799V689H792V687H799V678H801V687Z" fill="white"/>
<path d="M849 687H856V689H849V698H847V689H840V687H847V678H849V687Z" fill="white"/>
<path d="M896 687H903V689H896V698H894V689H887V687H894V678H896V687Z" fill="white"/>
<path d="M944 687H951V689H944V698H942V689H935V687H942V678H944V687Z" fill="white"/>
<path d="M991 687H998V689H991V698H989V689H982V687H989V678H991V687Z" fill="white"/>
<path d="M1039 687H1046V689H1039V698H1037V689H1030V687H1037V678H1039V687Z" fill="white"/>
<path d="M1086 687H1093V689H1086V698H1084V689H1077V687H1084V678H1086V687Z" fill="white"/>
<path d="M1134 687H1141V689H1134V698H1132V689H1125V687H1132V678H1134V687Z" fill="white"/>
<path d="M1181 687H1188V689H1181V698H1179V689H1172V687H1179V678H1181V687Z" fill="white"/>
<path d="M89 746H96V748H89V757H87V748H80V746H87V737H89V746Z" fill="white"/>
<path d="M136 746H143V748H136V757H134V748H127V746H134V737H136V746Z" fill="white"/>
<path d="M184 746H191V748H184V757H182V748H175V746H182V737H184V746Z" fill="white"/>
<path d="M231 746H238V748H231V757H229V748H222V746H229V737H231V746Z" fill="white"/>
<path d="M279 746H286V748H279V757H277V748H270V746H277V737H279V746Z" fill="white"/>
<path d="M326 746H333V748H326V757H324V748H317V746H324V737H326V746Z" fill="white"/>
<path d="M374 746H381V748H374V757H372V748H365V746H372V737H374V746Z" fill="white"/>
<path d="M421 746H428V748H421V757H419V748H412V746H419V737H421V746Z" fill="white"/>
<path d="M469 746H476V748H469V757H467V748H460V746H467V737H469V746Z" fill="white"/>
<path d="M516 746H523V748H516V757H514V748H507V746H514V737H516V746Z" fill="white"/>
<path d="M564 746H571V748H564V757H562V748H555V746H562V737H564V746Z" fill="white"/>
<path d="M611 746H618V748H611V757H609V748H602V746H609V737H611V746Z" fill="white"/>
<path d="M659 746H666V748H659V757H657V748H650V746H657V737H659V746Z" fill="white"/>
<path d="M706 746H713V748H706V757H704V748H697V746H704V737H706V746Z" fill="white"/>
<path d="M754 746H761V748H754V757H752V748H745V746H752V737H754V746Z" fill="white"/>
<path d="M801 746H808V748H801V757H799V748H792V746H799V737H801V746Z" fill="white"/>
<path d="M849 746H856V748H849V757H847V748H840V746H847V737H849V746Z" fill="white"/>
<path d="M896 746H903V748H896V757H894V748H887V746H894V737H896V746Z" fill="white"/>
<path d="M944 746H951V748H944V757H942V748H935V746H942V737H944V746Z" fill="white"/>
<path d="M991 746H998V748H991V757H989V748H982V746H989V737H991V746Z" fill="white"/>
<path d="M1039 746H1046V748H1039V757H1037V748H1030V746H1037V737H1039V746Z" fill="white"/>
<path d="M1086 746H1093V748H1086V757H1084V748H1077V746H1084V737H1086V746Z" fill="white"/>
<path d="M1134 746H1141V748H1134V757H1132V748H1125V746H1132V737H1134V746Z" fill="white"/>
<path d="M1181 746H1188V748H1181V757H1179V748H1172V746H1179V737H1181V746Z" fill="white"/>
<path d="M89 805H96V807H89V816H87V807H80V805H87V796H89V805Z" fill="white"/>
<path d="M136 805H143V807H136V816H134V807H127V805H134V796H136V805Z" fill="white"/>
<path d="M184 805H191V807H184V816H182V807H175V805H182V796H184V805Z" fill="white"/>
<path d="M231 805H238V807H231V816H229V807H222V805H229V796H231V805Z" fill="white"/>
<path d="M279 805H286V807H279V816H277V807H270V805H277V796H279V805Z" fill="white"/>
<path d="M326 805H333V807H326V816H324V807H317V805H324V796H326V805Z" fill="white"/>
<path d="M374 805H381V807H374V816H372V807H365V805H372V796H374V805Z" fill="white"/>
<path d="M421 805H428V807H421V816H419V807H412V805H419V796H421V805Z" fill="white"/>
<path d="M469 805H476V807H469V816H467V807H460V805H467V796H469V805Z" fill="white"/>
<path d="M516 805H523V807H516V816H514V807H507V805H514V796H516V805Z" fill="white"/>
<path d="M564 805H571V807H564V816H562V807H555V805H562V796H564V805Z" fill="white"/>
<path d="M611 805H618V807H611V816H609V807H602V805H609V796H611V805Z" fill="white"/>
<path d="M659 805H666V807H659V816H657V807H650V805H657V796H659V805Z" fill="white"/>
<path d="M706 805H713V807H706V816H704V807H697V805H704V796H706V805Z" fill="white"/>
<path d="M754 805H761V807H754V816H752V807H745V805H752V796H754V805Z" fill="white"/>
<path d="M801 805H808V807H801V816H799V807H792V805H799V796H801V805Z" fill="white"/>
<path d="M849 805H856V807H849V816H847V807H840V805H847V796H849V805Z" fill="white"/>
<path d="M896 805H903V807H896V816H894V807H887V805H894V796H896V805Z" fill="white"/>
<path d="M944 805H951V807H944V816H942V807H935V805H942V796H944V805Z" fill="white"/>
<path d="M991 805H998V807H991V816H989V807H982V805H989V796H991V805Z" fill="white"/>
<path d="M1039 805H1046V807H1039V816H1037V807H1030V805H1037V796H1039V805Z" fill="white"/>
<path d="M1086 805H1093V807H1086V816H1084V807H1077V805H1084V796H1086V805Z" fill="white"/>
<path d="M1134 805H1141V807H1134V816H1132V807H1125V805H1132V796H1134V805Z" fill="white"/>
<path d="M1181 805H1188V807H1181V816H1179V807H1172V805H1179V796H1181V805Z" fill="white"/>
<path d="M89 864H96V866H89V875H87V866H80V864H87V855H89V864Z" fill="white"/>
<path d="M136 864H143V866H136V875H134V866H127V864H134V855H136V864Z" fill="white"/>
<path d="M184 864H191V866H184V875H182V866H175V864H182V855H184V864Z" fill="white"/>
<path d="M231 864H238V866H231V875H229V866H222V864H229V855H231V864Z" fill="white"/>
<path d="M279 864H286V866H279V875H277V866H270V864H277V855H279V864Z" fill="white"/>
<path d="M326 864H333V866H326V875H324V866H317V864H324V855H326V864Z" fill="white"/>
<path d="M374 864H381V866H374V875H372V866H365V864H372V855H374V864Z" fill="white"/>
<path d="M421 864H428V866H421V875H419V866H412V864H419V855H421V864Z" fill="white"/>
<path d="M469 864H476V866H469V875H467V866H460V864H467V855H469V864Z" fill="white"/>
<path d="M516 864H523V866H516V875H514V866H507V864H514V855H516V864Z" fill="white"/>
<path d="M564 864H571V866H564V875H562V866H555V864H562V855H564V864Z" fill="white"/>
<path d="M611 864H618V866H611V875H609V866H602V864H609V855H611V864Z" fill="white"/>
<path d="M659 864H666V866H659V875H657V866H650V864H657V855H659V864Z" fill="white"/>
<path d="M706 864H713V866H706V875H704V866H697V864H704V855H706V864Z" fill="white"/>
<path d="M754 864H761V866H754V875H752V866H745V864H752V855H754V864Z" fill="white"/>
<path d="M801 864H808V866H801V875H799V866H792V864H799V855H801V864Z" fill="white"/>
<path d="M849 864H856V866H849V875H847V866H840V864H847V855H849V864Z" fill="white"/>
<path d="M896 864H903V866H896V875H894V866H887V864H894V855H896V864Z" fill="white"/>
<path d="M944 864H951V866H944V875H942V866H935V864H942V855H944V864Z" fill="white"/>
<path d="M991 864H998V866H991V875H989V866H982V864H989V855H991V864Z" fill="white"/>
<path d="M1039 864H1046V866H1039V875H1037V866H1030V864H1037V855H1039V864Z" fill="white"/>
<path d="M1086 864H1093V866H1086V875H1084V866H1077V864H1084V855H1086V864Z" fill="white"/>
<path d="M1134 864H1141V866H1134V875H1132V866H1125V864H1132V855H1134V864Z" fill="white"/>
<path d="M1181 864H1188V866H1181V875H1179V866H1172V864H1179V855H1181V864Z" fill="white"/>
<path d="M89 923H96V925H89V934H87V925H80V923H87V914H89V923Z" fill="white"/>
<path d="M136 923H143V925H136V934H134V925H127V923H134V914H136V923Z" fill="white"/>
<path d="M184 923H191V925H184V934H182V925H175V923H182V914H184V923Z" fill="white"/>
<path d="M231 923H238V925H231V934H229V925H222V923H229V914H231V923Z" fill="white"/>
<path d="M279 923H286V925H279V934H277V925H270V923H277V914H279V923Z" fill="white"/>
<path d="M326 923H333V925H326V934H324V925H317V923H324V914H326V923Z" fill="white"/>
<path d="M374 923H381V925H374V934H372V925H365V923H372V914H374V923Z" fill="white"/>
<path d="M421 923H428V925H421V934H419V925H412V923H419V914H421V923Z" fill="white"/>
<path d="M469 923H476V925H469V934H467V925H460V923H467V914H469V923Z" fill="white"/>
<path d="M516 923H523V925H516V934H514V925H507V923H514V914H516V923Z" fill="white"/>
<path d="M564 923H571V925H564V934H562V925H555V923H562V914H564V923Z" fill="white"/>
<path d="M611 923H618V925H611V934H609V925H602V923H609V914H611V923Z" fill="white"/>
<path d="M659 923H666V925H659V934H657V925H650V923H657V914H659V923Z" fill="white"/>
<path d="M706 923H713V925H706V934H704V925H697V923H704V914H706V923Z" fill="white"/>
<path d="M754 923H761V925H754V934H752V925H745V923H752V914H754V923Z" fill="white"/>
<path d="M801 923H808V925H801V934H799V925H792V923H799V914H801V923Z" fill="white"/>
<path d="M849 923H856V925H849V934H847V925H840V923H847V914H849V923Z" fill="white"/>
<path d="M896 923H903V925H896V934H894V925H887V923H894V914H896V923Z" fill="white"/>
<path d="M944 923H951V925H944V934H942V925H935V923H942V914H944V923Z" fill="white"/>
<path d="M991 923H998V925H991V934H989V925H982V923H989V914H991V923Z" fill="white"/>
<path d="M1039 923H1046V925H1039V934H1037V925H1030V923H1037V914H1039V923Z" fill="white"/>
<path d="M1086 923H1093V925H1086V934H1084V925H1077V923H1084V914H1086V923Z" fill="white"/>
<path d="M1134 923H1141V925H1134V934H1132V925H1125V923H1132V914H1134V923Z" fill="white"/>
<path d="M1181 923H1188V925H1181V934H1179V925H1172V923H1179V914H1181V923Z" fill="white"/>
</g>
</g>
<rect width="2.08462" height="294.343" transform="matrix(0 1 1 0 886.656 451)" fill="white"/>
<rect width="2.03716" height="136.238" transform="matrix(-0.437331 -0.899301 -0.683209 0.730222 887.185 453.084)" fill="white"/>
<path d="M139.365 746.285V747.285H140.365H254.425H255.425V746.285V655.027H537.575V746.285V747.285H538.575H652.635H653.635V746.285V547.728V546.728H652.635H591.603V181.702V180.702H590.603H239.417H238.417V181.702V266.941C238.417 406.303 220.835 488.246 184.831 546.728H140.365H139.365V547.728V746.285ZM468.539 289V546.728H318.891C338.909 491.974 359.029 404.499 360.469 289H468.539Z" stroke="white" stroke-width="2"/>
<rect x="418.76" y="159" width="1.97407" height="609" fill="white"/>
<rect x="92" y="547.891" width="1.97407" height="609" transform="rotate(-90 92 547.891)" fill="white"/>
<path opacity="0.5" d="M701 464C701 620.303 575.185 747 420 747C264.815 747 139 620.303 139 464C139 307.697 264.815 181 420 181C575.185 181 701 307.697 701 464Z" stroke="white" stroke-width="2"/>
<g clip-path="url(#clip0_553_25697)">
<mask id="mask0_553_25697" style="mask-type:luminance" maskUnits="userSpaceOnUse" x="804" y="548" width="369" height="369">
<path d="M1173 733C1173 631.103 1090.9 548 989 548C887.103 548 804 631.103 804 733C804 834.897 887.103 917 989 917C1090.9 917 1173 834.897 1173 733Z" fill="white"/>
</mask>
<g mask="url(#mask0_553_25697)">
<path d="M989 916C1090.34 916 1172 834.344 1172 733C1172 631.656 1090.34 549 989 549C887.656 549 805 631.656 805 733C805 834.344 887.656 916 989 916Z" stroke="white" stroke-width="2"/>
<path d="M851 967V968H852H988H989V967V858H1327V967V968H1464H1465V967V730H1464H1391V294V293H1390H970H969V294V395C969 561.411 948.184 660.131 905 730H852H851V967ZM1245 422V730H1065C1089.01 664.715 1113.32 560.313 1115 422H1245Z" fill="white"/>
<path d="M851 967V968H852H988H989V967V858H1327V967V968H1464H1465V967V730H1464H1391V294V293H1390H970H969V294V395C969 561.411 948.184 660.131 905 730H852H851V967ZM1245 422V730H1065C1089.01 664.715 1113.32 560.313 1115 422H1245Z" stroke="white" stroke-width="2"/>
</g>
</g>
<g clip-path="url(#clip1_553_25697)">
<rect y="1024" width="1280" height="432" fill="white"/>
<g clip-path="url(#clip2_553_25697)">
<rect x="42" y="1066" width="1189" height="348" stroke="#003CFF" stroke-width="4"/>
<g opacity="0.5">
<rect x="99" y="1064" width="2" height="944" fill="#003CFF"/>
<rect x="41" y="1123" width="2" height="1359" transform="rotate(-90 41 1123)" fill="#003CFF"/>
<rect x="41" y="1182" width="2" height="1359" transform="rotate(-90 41 1182)" fill="#003CFF"/>
<rect x="41" y="1241" width="2" height="1359" transform="rotate(-90 41 1241)" fill="#003CFF"/>
<rect x="41" y="1300" width="2" height="1359" transform="rotate(-90 41 1300)" fill="#003CFF"/>
<rect x="41" y="1359" width="2" height="1359" transform="rotate(-90 41 1359)" fill="#003CFF"/>
<rect x="153" y="1064" width="2" height="944" fill="#003CFF"/>
<rect x="207" y="1064" width="2" height="944" fill="#003CFF"/>
<rect x="261" y="1064" width="2" height="944" fill="#003CFF"/>
<rect x="315" y="1064" width="2" height="944" fill="#003CFF"/>
<rect x="369" y="1064" width="2" height="944" fill="#003CFF"/>
<rect x="423" y="1064" width="2" height="944" fill="#003CFF"/>
<rect x="477" y="1064" width="2" height="944" fill="#003CFF"/>
<rect x="531" y="1064" width="2" height="944" fill="#003CFF"/>
<rect x="585" y="1064" width="2" height="944" fill="#003CFF"/>
<rect x="639" y="1064" width="2" height="944" fill="#003CFF"/>
<rect x="693" y="1064" width="2" height="944" fill="#003CFF"/>
<rect x="747" y="1064" width="2" height="944" fill="#003CFF"/>
<rect x="801" y="1064" width="2" height="944" fill="#003CFF"/>
<rect x="855" y="1064" width="2" height="944" fill="#003CFF"/>
<rect x="909" y="1064" width="2" height="944" fill="#003CFF"/>
<rect x="963" y="1064" width="2" height="944" fill="#003CFF"/>
<rect x="1017" y="1064" width="2" height="944" fill="#003CFF"/>
<path d="M1071 1064H1073V2008H1071V1064Z" fill="#003CFF"/>
<rect x="1125" y="1064" width="2" height="944" fill="#003CFF"/>
<rect x="1179" y="1064" width="2" height="944" fill="#003CFF"/>
</g>
</g>
<path d="M101 1121H109V1123H101V1132H99V1123H91V1121H99V1112H101V1121Z" fill="#003CFF"/>
<path d="M155 1121H163V1123H155V1132H153V1123H145V1121H153V1112H155V1121Z" fill="#003CFF"/>
<path d="M209 1121H217V1123H209V1132H207V1123H199V1121H207V1112H209V1121Z" fill="#003CFF"/>
<path d="M263 1121H271V1123H263V1132H261V1123H253V1121H261V1112H263V1121Z" fill="#003CFF"/>
<path d="M317 1121H325V1123H317V1132H315V1123H307V1121H315V1112H317V1121Z" fill="#003CFF"/>
<path d="M371 1121H379V1123H371V1132H369V1123H361V1121H369V1112H371V1121Z" fill="#003CFF"/>
<path d="M425 1121H433V1123H425V1132H423V1123H415V1121H423V1112H425V1121Z" fill="#003CFF"/>
<path d="M479 1121H487V1123H479V1132H477V1123H469V1121H477V1112H479V1121Z" fill="#003CFF"/>
<path d="M533 1121H541V1123H533V1132H531V1123H523V1121H531V1112H533V1121Z" fill="#003CFF"/>
<path d="M587 1121H595V1123H587V1132H585V1123H577V1121H585V1112H587V1121Z" fill="#003CFF"/>
<path d="M641 1121H649V1123H641V1132H639V1123H631V1121H639V1112H641V1121Z" fill="#003CFF"/>
<path d="M695 1121H703V1123H695V1132H693V1123H685V1121H693V1112H695V1121Z" fill="#003CFF"/>
<path d="M749 1121H757V1123H749V1132H747V1123H739V1121H747V1112H749V1121Z" fill="#003CFF"/>
<path d="M803 1121H811V1123H803V1132H801V1123H793V1121H801V1112H803V1121Z" fill="#003CFF"/>
<path d="M857 1121H865V1123H857V1132H855V1123H847V1121H855V1112H857V1121Z" fill="#003CFF"/>
<path d="M911 1121H919V1123H911V1132H909V1123H901V1121H909V1112H911V1121Z" fill="#003CFF"/>
<path d="M965 1121H973V1123H965V1132H963V1123H955V1121H963V1112H965V1121Z" fill="#003CFF"/>
<path d="M1019 1121H1027V1123H1019V1132H1017V1123H1009V1121H1017V1112H1019V1121Z" fill="#003CFF"/>
<path d="M1073 1121H1081V1123H1073V1132H1071V1123H1063V1121H1071V1112H1073V1121Z" fill="#003CFF"/>
<path d="M1127 1121H1135V1123H1127V1132H1125V1123H1117V1121H1125V1112H1127V1121Z" fill="#003CFF"/>
<path d="M1181 1121H1189V1123H1181V1132H1179V1123H1171V1121H1179V1112H1181V1121Z" fill="#003CFF"/>
<path d="M1289 1121H1297V1123H1289V1132H1287V1123H1279V1121H1287V1112H1289V1121Z" fill="#003CFF"/>
<path d="M101 1180H109V1182H101V1191H99V1182H91V1180H99V1171H101V1180Z" fill="#003CFF"/>
<path d="M155 1180H163V1182H155V1191H153V1182H145V1180H153V1171H155V1180Z" fill="#003CFF"/>
<path d="M209 1180H217V1182H209V1191H207V1182H199V1180H207V1171H209V1180Z" fill="#003CFF"/>
<path d="M263 1180H271V1182H263V1191H261V1182H253V1180H261V1171H263V1180Z" fill="#003CFF"/>
<path d="M317 1180H325V1182H317V1191H315V1182H307V1180H315V1171H317V1180Z" fill="#003CFF"/>
<path d="M371 1180H379V1182H371V1191H369V1182H361V1180H369V1171H371V1180Z" fill="#003CFF"/>
<path d="M425 1180H433V1182H425V1191H423V1182H415V1180H423V1171H425V1180Z" fill="#003CFF"/>
<path d="M479 1180H487V1182H479V1191H477V1182H469V1180H477V1171H479V1180Z" fill="#003CFF"/>
<path d="M533 1180H541V1182H533V1191H531V1182H523V1180H531V1171H533V1180Z" fill="#003CFF"/>
<path d="M587 1180H595V1182H587V1191H585V1182H577V1180H585V1171H587V1180Z" fill="#003CFF"/>
<path d="M641 1180H649V1182H641V1191H639V1182H631V1180H639V1171H641V1180Z" fill="#003CFF"/>
<path d="M695 1180H703V1182H695V1191H693V1182H685V1180H693V1171H695V1180Z" fill="#003CFF"/>
<path d="M749 1180H757V1182H749V1191H747V1182H739V1180H747V1171H749V1180Z" fill="#003CFF"/>
<path d="M803 1180H811V1182H803V1191H801V1182H793V1180H801V1171H803V1180Z" fill="#003CFF"/>
<path d="M857 1180H865V1182H857V1191H855V1182H847V1180H855V1171H857V1180Z" fill="#003CFF"/>
<path d="M911 1180H919V1182H911V1191H909V1182H901V1180H909V1171H911V1180Z" fill="#003CFF"/>
<path d="M965 1180H973V1182H965V1191H963V1182H955V1180H963V1171H965V1180Z" fill="#003CFF"/>
<path d="M1019 1180H1027V1182H1019V1191H1017V1182H1009V1180H1017V1171H1019V1180Z" fill="#003CFF"/>
<path d="M1073 1180H1081V1182H1073V1191H1071V1182H1063V1180H1071V1171H1073V1180Z" fill="#003CFF"/>
<path d="M1127 1180H1135V1182H1127V1191H1125V1182H1117V1180H1125V1171H1127V1180Z" fill="#003CFF"/>
<path d="M1181 1180H1189V1182H1181V1191H1179V1182H1171V1180H1179V1171H1181V1180Z" fill="#003CFF"/>
<path d="M1289 1180H1297V1182H1289V1191H1287V1182H1279V1180H1287V1171H1289V1180Z" fill="#003CFF"/>
<path d="M101 1239H109V1241H101V1250H99V1241H91V1239H99V1230H101V1239Z" fill="#003CFF"/>
<path d="M155 1239H163V1241H155V1250H153V1241H145V1239H153V1230H155V1239Z" fill="#003CFF"/>
<path d="M209 1239H217V1241H209V1250H207V1241H199V1239H207V1230H209V1239Z" fill="#003CFF"/>
<path d="M263 1239H271V1241H263V1250H261V1241H253V1239H261V1230H263V1239Z" fill="#003CFF"/>
<path d="M317 1239H325V1241H317V1250H315V1241H307V1239H315V1230H317V1239Z" fill="#003CFF"/>
<path d="M371 1239H379V1241H371V1250H369V1241H361V1239H369V1230H371V1239Z" fill="#003CFF"/>
<path d="M425 1239H433V1241H425V1250H423V1241H415V1239H423V1230H425V1239Z" fill="#003CFF"/>
<path d="M479 1239H487V1241H479V1250H477V1241H469V1239H477V1230H479V1239Z" fill="#003CFF"/>
<path d="M533 1239H541V1241H533V1250H531V1241H523V1239H531V1230H533V1239Z" fill="#003CFF"/>
<path d="M587 1239H595V1241H587V1250H585V1241H577V1239H585V1230H587V1239Z" fill="#003CFF"/>
<path d="M641 1239H649V1241H641V1250H639V1241H631V1239H639V1230H641V1239Z" fill="#003CFF"/>
<path d="M695 1239H703V1241H695V1250H693V1241H685V1239H693V1230H695V1239Z" fill="#003CFF"/>
<path d="M749 1239H757V1241H749V1250H747V1241H739V1239H747V1230H749V1239Z" fill="#003CFF"/>
<path d="M803 1239H811V1241H803V1250H801V1241H793V1239H801V1230H803V1239Z" fill="#003CFF"/>
<path d="M857 1239H865V1241H857V1250H855V1241H847V1239H855V1230H857V1239Z" fill="#003CFF"/>
<path d="M911 1239H919V1241H911V1250H909V1241H901V1239H909V1230H911V1239Z" fill="#003CFF"/>
<path d="M965 1239H973V1241H965V1250H963V1241H955V1239H963V1230H965V1239Z" fill="#003CFF"/>
<path d="M1019 1239H1027V1241H1019V1250H1017V1241H1009V1239H1017V1230H1019V1239Z" fill="#003CFF"/>
<path d="M1073 1239H1081V1241H1073V1250H1071V1241H1063V1239H1071V1230H1073V1239Z" fill="#003CFF"/>
<path d="M1127 1239H1135V1241H1127V1250H1125V1241H1117V1239H1125V1230H1127V1239Z" fill="#003CFF"/>
<path d="M1181 1239H1189V1241H1181V1250H1179V1241H1171V1239H1179V1230H1181V1239Z" fill="#003CFF"/>
<path d="M1289 1239H1297V1241H1289V1250H1287V1241H1279V1239H1287V1230H1289V1239Z" fill="#003CFF"/>
<path d="M101 1298H109V1300H101V1309H99V1300H91V1298H99V1289H101V1298Z" fill="#003CFF"/>
<path d="M155 1298H163V1300H155V1309H153V1300H145V1298H153V1289H155V1298Z" fill="#003CFF"/>
<path d="M209 1298H217V1300H209V1309H207V1300H199V1298H207V1289H209V1298Z" fill="#003CFF"/>
<path d="M263 1298H271V1300H263V1309H261V1300H253V1298H261V1289H263V1298Z" fill="#003CFF"/>
<path d="M317 1298H325V1300H317V1309H315V1300H307V1298H315V1289H317V1298Z" fill="#003CFF"/>
<path d="M371 1298H379V1300H371V1309H369V1300H361V1298H369V1289H371V1298Z" fill="#003CFF"/>
<path d="M425 1298H433V1300H425V1309H423V1300H415V1298H423V1289H425V1298Z" fill="#003CFF"/>
<path d="M479 1298H487V1300H479V1309H477V1300H469V1298H477V1289H479V1298Z" fill="#003CFF"/>
<path d="M533 1298H541V1300H533V1309H531V1300H523V1298H531V1289H533V1298Z" fill="#003CFF"/>
<path d="M587 1298H595V1300H587V1309H585V1300H577V1298H585V1289H587V1298Z" fill="#003CFF"/>
<path d="M641 1298H649V1300H641V1309H639V1300H631V1298H639V1289H641V1298Z" fill="#003CFF"/>
<path d="M695 1298H703V1300H695V1309H693V1300H685V1298H693V1289H695V1298Z" fill="#003CFF"/>
<path d="M749 1298H757V1300H749V1309H747V1300H739V1298H747V1289H749V1298Z" fill="#003CFF"/>
<path d="M803 1298H811V1300H803V1309H801V1300H793V1298H801V1289H803V1298Z" fill="#003CFF"/>
<path d="M857 1298H865V1300H857V1309H855V1300H847V1298H855V1289H857V1298Z" fill="#003CFF"/>
<path d="M911 1298H919V1300H911V1309H909V1300H901V1298H909V1289H911V1298Z" fill="#003CFF"/>
<path d="M965 1298H973V1300H965V1309H963V1300H955V1298H963V1289H965V1298Z" fill="#003CFF"/>
<path d="M1019 1298H1027V1300H1019V1309H1017V1300H1009V1298H1017V1289H1019V1298Z" fill="#003CFF"/>
<path d="M1073 1298H1081V1300H1073V1309H1071V1300H1063V1298H1071V1289H1073V1298Z" fill="#003CFF"/>
<path d="M1127 1298H1135V1300H1127V1309H1125V1300H1117V1298H1125V1289H1127V1298Z" fill="#003CFF"/>
<path d="M1181 1298H1189V1300H1181V1309H1179V1300H1171V1298H1179V1289H1181V1298Z" fill="#003CFF"/>
<path d="M1289 1298H1297V1300H1289V1309H1287V1300H1279V1298H1287V1289H1289V1298Z" fill="#003CFF"/>
<path d="M101 1357H109V1359H101V1368H99V1359H91V1357H99V1348H101V1357Z" fill="#003CFF"/>
<path d="M155 1357H163V1359H155V1368H153V1359H145V1357H153V1348H155V1357Z" fill="#003CFF"/>
<path d="M209 1357H217V1359H209V1368H207V1359H199V1357H207V1348H209V1357Z" fill="#003CFF"/>
<path d="M263 1357H271V1359H263V1368H261V1359H253V1357H261V1348H263V1357Z" fill="#003CFF"/>
<path d="M317 1357H325V1359H317V1368H315V1359H307V1357H315V1348H317V1357Z" fill="#003CFF"/>
<path d="M371 1357H379V1359H371V1368H369V1359H361V1357H369V1348H371V1357Z" fill="#003CFF"/>
<path d="M425 1357H433V1359H425V1368H423V1359H415V1357H423V1348H425V1357Z" fill="#003CFF"/>
<path d="M479 1357H487V1359H479V1368H477V1359H469V1357H477V1348H479V1357Z" fill="#003CFF"/>
<path d="M533 1357H541V1359H533V1368H531V1359H523V1357H531V1348H533V1357Z" fill="#003CFF"/>
<path d="M587 1357H595V1359H587V1368H585V1359H577V1357H585V1348H587V1357Z" fill="#003CFF"/>
<path d="M641 1357H649V1359H641V1368H639V1359H631V1357H639V1348H641V1357Z" fill="#003CFF"/>
<path d="M695 1357H703V1359H695V1368H693V1359H685V1357H693V1348H695V1357Z" fill="#003CFF"/>
<path d="M749 1357H757V1359H749V1368H747V1359H739V1357H747V1348H749V1357Z" fill="#003CFF"/>
<path d="M803 1357H811V1359H803V1368H801V1359H793V1357H801V1348H803V1357Z" fill="#003CFF"/>
<path d="M857 1357H865V1359H857V1368H855V1359H847V1357H855V1348H857V1357Z" fill="#003CFF"/>
<path d="M911 1357H919V1359H911V1368H909V1359H901V1357H909V1348H911V1357Z" fill="#003CFF"/>
<path d="M965 1357H973V1359H965V1368H963V1359H955V1357H963V1348H965V1357Z" fill="#003CFF"/>
<path d="M1019 1357H1027V1359H1019V1368H1017V1359H1009V1357H1017V1348H1019V1357Z" fill="#003CFF"/>
<path d="M1073 1357H1081V1359H1073V1368H1071V1359H1063V1357H1071V1348H1073V1357Z" fill="#003CFF"/>
<path d="M1127 1357H1135V1359H1127V1368H1125V1359H1117V1357H1125V1348H1127V1357Z" fill="#003CFF"/>
<path d="M1181 1357H1189V1359H1181V1368H1179V1359H1171V1357H1179V1348H1181V1357Z" fill="#003CFF"/>
<path d="M1289 1357H1297V1359H1289V1368H1287V1359H1279V1357H1287V1348H1289V1357Z" fill="#003CFF"/>
<g clip-path="url(#clip3_553_25697)">
<mask id="mask1_553_25697" style="mask-type:luminance" maskUnits="userSpaceOnUse" x="125" y="1122" width="236" height="237">
<path d="M361 1240.98C361 1175.53 308.643 1122 243.474 1122C178.304 1122 125 1175.53 125 1240.98C125 1306.42 178.304 1359 243.474 1359C308.643 1359 361 1306.42 361 1240.98Z" fill="white"/>
</mask>
<g mask="url(#mask1_553_25697)">
<path d="M243.474 1359C308.382 1359 361 1306.16 361 1240.98C361 1175.79 308.382 1122.95 243.474 1122.95C178.566 1122.95 125.948 1175.79 125.948 1240.98C125.948 1306.16 178.566 1359 243.474 1359Z" stroke="#003CFF" stroke-width="6"/>
</g>
<path d="M385.643 1274.29C389.996 1274.29 395.506 1273.86 399.859 1271.43V1311.41C392.604 1316.76 379.688 1319.02 369.53 1319.02C346.312 1319.02 326.069 1308.57 319.297 1284.76C302.367 1304.2 273.7 1321.88 232.1 1321.88C182.278 1321.88 143.008 1292.96 143.008 1241.93C143.008 1188.95 188.429 1162.93 238.735 1162.93C274.53 1162.93 298.112 1171.78 314.558 1181.01V1167.69C314.558 1126.37 281.184 1115.34 244.422 1115.34C216.85 1115.34 187.444 1126.05 169.546 1137.23V1090.59C186.476 1080.87 214.196 1070.6 255.795 1070.6C319.645 1070.6 365.739 1101.71 365.739 1161.98V1250.49C365.739 1265.56 374.033 1274.29 385.643 1274.29ZM314.558 1247.64V1219.08C299.079 1210.34 276.693 1201.95 251.056 1201.95C216.713 1201.95 195.137 1215.74 195.137 1239.07C195.137 1265.32 217.778 1277.14 246.317 1277.14C274.856 1277.14 301.014 1262.71 314.558 1247.64Z" fill="#003CFF"/>
</g>
<g clip-path="url(#clip4_553_25697)">
<mask id="mask2_553_25697" style="mask-type:luminance" maskUnits="userSpaceOnUse" x="521" y="1122" width="237" height="237">
<path d="M758 1240.98C758 1175.53 705.422 1122 639.976 1122C574.53 1122 521 1175.53 521 1240.98C521 1306.42 574.53 1359 639.976 1359C705.422 1359 758 1306.42 758 1240.98Z" fill="white"/>
</mask>
<g mask="url(#mask2_553_25697)">
<path d="M639.976 1359C705.159 1359 758 1306.16 758 1240.98C758 1175.79 705.159 1122.95 639.976 1122.95C574.793 1122.95 521.952 1175.79 521.952 1240.98C521.952 1306.16 574.793 1359 639.976 1359Z" stroke="#003CFF" stroke-width="6"/>
</g>
<path d="M710.41 1079.17L708.506 1121.05C706.163 1212.91 693.79 1313.31 597.145 1313.31C590.116 1313.31 583.6 1313.18 577.157 1311.41V1256.2C581.257 1257.38 586.968 1258.11 590.482 1258.11C632.654 1258.11 645.833 1214.99 647.59 1117.24L649.494 1023.01H881.735V1312.36H818.916V1079.17H710.41Z" fill="#003CFF"/>
</g>
<g clip-path="url(#clip5_553_25697)">
<mask id="mask3_553_25697" style="mask-type:luminance" maskUnits="userSpaceOnUse" x="918" y="1122" width="236" height="237">
<path d="M1154 1240.98C1154 1175.53 1101.64 1122 1036.47 1122C971.304 1122 918 1175.53 918 1240.98C918 1306.42 971.304 1359 1036.47 1359C1101.64 1359 1154 1306.42 1154 1240.98Z" fill="white"/>
</mask>
<g mask="url(#mask3_553_25697)">
<path d="M1036.47 1359C1101.38 1359 1154 1306.16 1154 1240.98C1154 1175.79 1101.38 1122.95 1036.47 1122.95C971.566 1122.95 918.948 1175.79 918.948 1240.98C918.948 1306.16 971.566 1359 1036.47 1359Z" stroke="#003CFF" stroke-width="6"/>
</g>
<path d="M1019.41 1416.11C948.075 1416.11 889.566 1366.86 889.566 1291.42C889.566 1222.23 937.161 1167.69 1009.94 1167.69C1085.1 1167.69 1121.78 1231.34 1121.78 1293.33V1306.65H941.695C948.398 1347.01 983.867 1370.42 1030.79 1370.42C1059.99 1370.42 1085.08 1361.98 1105.66 1349.48V1393.27C1086.99 1406.72 1055.32 1416.11 1019.41 1416.11ZM942.643 1267.63H1069.65C1069.17 1242.16 1049.69 1211.47 1008.04 1211.47C968.301 1211.47 945.515 1238.8 942.643 1267.63Z" fill="#003CFF"/>
</g>
</g>
<rect x="1.5" y="1025.5" width="1277" height="429" stroke="#003CFF" stroke-width="3"/>
<defs>
<clipPath id="clip0_553_25697">
<rect width="369" height="369" fill="white" transform="translate(804 548)"/>
</clipPath>
<clipPath id="clip1_553_25697">
<rect y="1024" width="1280" height="432" fill="white"/>
</clipPath>
<clipPath id="clip2_553_25697">
<rect width="1189" height="348" fill="white" transform="translate(42 1066)"/>
</clipPath>
<clipPath id="clip3_553_25697">
<rect x="125" y="1122" width="236" height="237" rx="118" fill="white"/>
</clipPath>
<clipPath id="clip4_553_25697">
<rect x="521" y="1122" width="237" height="237" rx="118.5" fill="white"/>
</clipPath>
<clipPath id="clip5_553_25697">
<rect x="918" y="1122" width="236" height="237" rx="118" fill="white"/>
</clipPath>
</defs>
</svg>
