<svg width="456" height="175" viewBox="0 0 456 175" fill="none" xmlns="http://www.w3.org/2000/svg">
<path d="M448 1H9C4.77937 1 1 4.7795 1 9V167C1 171.221 4.77937 175 9 175H448C452.221 175 456 171.221 456 167V9C456 4.7795 452.221 1 448 1Z" fill="#003CFF" stroke="#003CFF"/>
<path d="M172 8H105C100.803 8 97 11.8433 97 16V22C97 26.1567 100.803 30 105 30H172C176.197 30 180 26.1567 180 22V16C180 11.8433 176.197 8 172 8Z" stroke="white"/>
<path d="M262 8H195C190.803 8 187 11.8433 187 16V22C187 26.1567 190.803 30 195 30H262C266.197 30 270 26.1567 270 22V16C270 11.8433 266.197 8 262 8Z" stroke="white"/>
<path d="M351 8H284C279.803 8 276 11.8433 276 16V22C276 26.1567 279.803 30 284 30H351C355.197 30 359 26.1567 359 22V16C359 11.8433 355.197 8 351 8Z" stroke="white"/>
<path d="M440 8H373C368.803 8 365 11.8433 365 16V22C365 26.1567 368.803 30 373 30H440C444.197 30 448 26.1567 448 22V16C448 11.8433 444.197 8 440 8Z" stroke="white"/>
<path d="M83 35H16C11.8034 35 8 38.7748 8 43V160C8 164.225 11.8034 168 16 168H83C87.1966 168 91 164.225 91 160V43C91 38.7748 87.1966 35 83 35Z" fill="white" stroke="white"/>
<path d="M172 35H105C100.803 35 97 38.7748 97 43V160C97 164.225 100.803 168 105 168H172C176.197 168 180 164.225 180 160V43C180 38.7748 176.197 35 172 35Z" fill="white" stroke="white"/>
<path d="M262 35H195C190.803 35 187 38.7748 187 43V160C187 164.225 190.803 168 195 168H262C266.197 168 270 164.225 270 160V43C270 38.7748 266.197 35 262 35Z" fill="white" stroke="white"/>
<path d="M351 35H284C279.803 35 276 38.7748 276 43V160C276 164.225 279.803 168 284 168H351C355.197 168 359 164.225 359 160V43C359 38.7748 355.197 35 351 35Z" fill="white" stroke="white"/>
<path d="M440 35H373C368.803 35 365 38.7748 365 43V160C365 164.225 368.803 168 373 168H440C444.197 168 448 164.225 448 160V43C448 38.7748 444.197 35 440 35Z" fill="white" stroke="white"/>
<path d="M83 8H16C11.8034 8 8 11.8433 8 16V22C8 26.1567 11.8034 30 16 30H83C87.1966 30 91 26.1567 91 22V16C91 11.8433 87.1966 8 83 8Z" stroke="white"/>
</svg>
